<?xml version="1.0" encoding="utf-8"?>
<!-- Generator: Adobe Illustrator 15.1.0, SVG Export Plug-In . SVG Version: 6.00 Build 0)  -->
<!DOCTYPE svg PUBLIC "-//W3C//DTD SVG 1.1//EN" "http://www.w3.org/Graphics/SVG/1.1/DTD/svg11.dtd">
<svg version="1.1" id="Layer_1" xmlns="http://www.w3.org/2000/svg" xmlns:xlink="http://www.w3.org/1999/xlink" x="0px" y="0px"
	 width="284px" height="88px" viewBox="0 0 284 88" enable-background="new 0 0 284 88" xml:space="preserve">
<rect fill="#FFFFFF" width="284" height="88"/>
<g>
	<polygon fill="#E8EBBC" points="12.8,19.8 44.2,11 70,17.5 171.9,11.5 217,0 259.2,12.2 248.2,44.8 12.8,38.6 	"/>
	<polygon fill="#D4DA77" points="49.1,22.2 154.9,2 224.4,17.9 124.8,38.6 	"/>
	<polygon fill="#DCE193" points="124.5,36.4 49.1,22.2 0,13.8 0,88 284,88 284,13.8 260.9,8.6 	"/>
	<polygon fill="#C1CD23" points="85.6,29.6 144.7,17.5 181.5,26.5 126.7,38.6 	"/>
	<polygon fill="#70A037" points="124.8,36.1 49.1,22.2 0,31.2 0,88 284,88 284,31.2 220.5,17 	"/>
</g>
</svg>
