<?xml version="1.0" encoding="utf-8"?>
<!-- Generator: Adobe Illustrator 15.1.0, SVG Export Plug-In . SVG Version: 6.00 Build 0)  -->
<!DOCTYPE svg PUBLIC "-//W3C//DTD SVG 1.1//EN" "http://www.w3.org/Graphics/SVG/1.1/DTD/svg11.dtd">
<svg version="1.1" id="Layer_1" xmlns="http://www.w3.org/2000/svg" xmlns:xlink="http://www.w3.org/1999/xlink" x="0px" y="0px"
	 width="200px" height="141px" viewBox="0 0 200 141" enable-background="new 0 0 200 141" xml:space="preserve">
<g>
	<g>
		<g>
			<g>
				<path fill="#FFFFFF" d="M200,31c0-2.2-1.8-4-4-4H4c-2.2,0-4,1.8-4,4v106c0,2.2,1.8,4,4,4h192c2.2,0,4-1.8,4-4V31z"/>
			</g>
		</g>
		<g>
			<g>
				<path fill="#FFFFFF" d="M200,4c0-2.2-1.8-4-4-4H4C1.8,0,0,1.8,0,4v18c0,2.2,1.8,4,4,4h192c2.2,0,4-1.8,4-4V4z"/>
			</g>
		</g>
	</g>
	<g>
		<g>
			<path fill="#3C71B9" d="M25.6,18.5v-1.1h1.2V9.7h-1.2V8.6h7.2v2.3h-1.2V9.8h-3.3v3.2h3.5v1.1h-3.5v3.3h3.5v-1.2H33v2.3H25.6z"/>
		</g>
		<g>
			<path fill="#3C71B9" d="M34.9,16.5V9.7h-1.2v-1h2.5v7.8c0,0.3,0.1,0.6,0.2,0.8s0.3,0.3,0.6,0.3l0.4,0l0,1.1c-0.2,0-0.4,0-0.6,0
				C35.6,18.5,34.9,17.9,34.9,16.5z"/>
		</g>
		<g>
			<path fill="#3C71B9" d="M38.4,15c0-1.1,0.3-2,1-2.7c0.7-0.7,1.5-1,2.5-1c1,0,1.7,0.3,2.3,0.9c0.5,0.6,0.8,1.4,0.8,2.4l0,0.5h-5.2
				c0,0.8,0.3,1.3,0.8,1.8c0.5,0.4,1,0.6,1.7,0.6c0.4,0,0.7-0.1,1.1-0.2c0.4-0.1,0.6-0.3,0.8-0.4l0.3-0.2l0.6,1
				c-0.1,0.1-0.2,0.2-0.3,0.3c-0.1,0.1-0.5,0.3-0.9,0.4c-0.5,0.2-1,0.3-1.5,0.3c-1.1,0-2-0.4-2.7-1.1S38.4,16,38.4,15z M39.8,14.2
				h3.8c0-0.6-0.2-1.1-0.5-1.4s-0.7-0.5-1.2-0.5c-0.5,0-1,0.2-1.4,0.5S39.9,13.6,39.8,14.2z"/>
		</g>
		<g>
			<path fill="#3C71B9" d="M46.1,15c0-1.1,0.4-2,1.1-2.7c0.7-0.7,1.6-1.1,2.7-1.1c0.3,0,0.6,0,0.9,0.1s0.6,0.1,0.9,0.3
				c0.3,0.1,0.5,0.3,0.7,0.5c0.2,0.2,0.3,0.5,0.3,0.8v0.9h-1.2v-0.5c0-0.3-0.2-0.5-0.5-0.6c-0.3-0.1-0.7-0.2-1-0.2
				c-0.7,0-1.3,0.2-1.7,0.7c-0.4,0.5-0.7,1.1-0.7,1.8c0,0.8,0.2,1.4,0.7,1.9c0.5,0.5,1.1,0.7,1.8,0.7c0.4,0,0.7-0.1,1.1-0.2
				c0.4-0.1,0.6-0.3,0.7-0.3c0.1-0.1,0.3-0.2,0.5-0.3l0.5,1c-0.8,0.7-1.7,1.1-2.8,1.1c-1.1,0-2-0.3-2.7-1C46.5,17,46.1,16.1,46.1,15
				z"/>
		</g>
		<g>
			<path fill="#3C71B9" d="M54.7,15.9v-3.4h-1.2v-1h1.2V9.5h1.3v1.9h1.7v1h-1.7v3.3c0,0.3,0.1,0.6,0.2,0.9c0.1,0.2,0.2,0.4,0.4,0.5
				c0.2,0.1,0.3,0.2,0.5,0.2c0.1,0,0.3,0.1,0.5,0.1l0.3,0v1.1c-0.1,0-0.3,0-0.5,0c-0.2,0-0.4,0-0.6,0c-0.2,0-0.4-0.1-0.7-0.2
				c-0.3-0.1-0.5-0.3-0.7-0.4s-0.4-0.4-0.5-0.8S54.7,16.4,54.7,15.9z"/>
		</g>
		<g>
			<path fill="#3C71B9" d="M59,18.5v-1h1.1v-4.7c0-0.2-0.1-0.3-0.3-0.3h-0.9v-1h1.6c0.6,0,0.9,0.3,0.9,0.8v0.4l0,0.5h0
				c0.2-0.5,0.5-1,0.8-1.3c0.4-0.3,0.9-0.5,1.4-0.5l0.4,0v1.3c-0.1,0-0.2,0-0.4,0c-0.7,0-1.2,0.3-1.6,0.9s-0.6,1.3-0.6,2v1.9h1v1H59
				z"/>
		</g>
		<g>
			<path fill="#3C71B9" d="M64.9,18.5v-1H66v-5h-1.2v-1h2.5v6h1.1v1H64.9z M66,10V8.6h1.4V10H66z"/>
		</g>
		<g>
			<path fill="#3C71B9" d="M69.5,15c0-1.1,0.4-2,1.1-2.7c0.7-0.7,1.6-1.1,2.7-1.1c0.3,0,0.6,0,0.9,0.1s0.6,0.1,0.9,0.3
				c0.3,0.1,0.5,0.3,0.7,0.5c0.2,0.2,0.3,0.5,0.3,0.8v0.9h-1.2v-0.5c0-0.3-0.2-0.5-0.5-0.6c-0.3-0.1-0.7-0.2-1-0.2
				c-0.7,0-1.3,0.2-1.7,0.7c-0.4,0.5-0.7,1.1-0.7,1.8c0,0.8,0.2,1.4,0.7,1.9c0.5,0.5,1.1,0.7,1.8,0.7c0.4,0,0.7-0.1,1.1-0.2
				c0.4-0.1,0.6-0.3,0.7-0.3c0.1-0.1,0.3-0.2,0.5-0.3l0.5,1c-0.8,0.7-1.7,1.1-2.8,1.1c-1.1,0-2-0.3-2.7-1C69.8,17,69.5,16.1,69.5,15
				z"/>
		</g>
		<g>
			<path fill="#3C71B9" d="M77.3,18.5v-1h1.1v-5h-1.2v-1h2.5v6h1.1v1H77.3z M78.4,10V8.6h1.4V10H78.4z"/>
		</g>
		<g>
			<path fill="#3C71B9" d="M82.7,15.9v-3.4h-1.2v-1h1.2V9.5h1.3v1.9h1.7v1h-1.7v3.3c0,0.3,0.1,0.6,0.2,0.9c0.1,0.2,0.2,0.4,0.4,0.5
				c0.2,0.1,0.3,0.2,0.5,0.2c0.1,0,0.3,0.1,0.5,0.1l0.3,0v1.1c-0.1,0-0.3,0-0.5,0c-0.2,0-0.4,0-0.6,0c-0.2,0-0.4-0.1-0.7-0.2
				c-0.3-0.1-0.5-0.3-0.7-0.4s-0.4-0.4-0.5-0.8S82.7,16.4,82.7,15.9z"/>
		</g>
		<g>
			<path fill="#3C71B9" d="M87.2,20c0.3,0.2,0.6,0.3,1,0.3c0.6,0,1-0.3,1.3-1l0.3-0.7l-2.5-6.2h-0.9v-1h3.2v1h-0.9l1.6,4.2l0.1,0.6
				h0c0-0.2,0.1-0.4,0.2-0.6l1.6-4.2h-0.9v-1h3.1v1h-0.9l-2.8,7.2c-0.2,0.6-0.6,1-1,1.4c-0.4,0.3-0.9,0.5-1.5,0.5
				c-0.3,0-0.5,0-0.8-0.1c-0.3-0.1-0.4-0.1-0.6-0.2L86.7,21L87.2,20z"/>
		</g>
		<g>
			<path fill="#3C71B9" d="M100.2,17.2c-1-1-1.4-2.2-1.4-3.7c0-1.5,0.5-2.7,1.4-3.6s2.2-1.4,3.7-1.4c0.6,0,1.2,0.1,1.8,0.2
				c0.6,0.1,1.1,0.4,1.4,0.7c0.4,0.3,0.6,0.7,0.6,1.1v1.2h-1.3v-0.7c0-0.4-0.2-0.7-0.8-0.9c-0.5-0.2-1.1-0.3-1.7-0.3
				c-1.1,0-2.1,0.4-2.7,1.1c-0.7,0.7-1,1.6-1,2.8c0,1.2,0.3,2.1,1,2.8c0.7,0.7,1.6,1.1,2.8,1.1c0.4,0,0.7,0,1.1-0.1
				c0.4-0.1,0.7-0.2,1.1-0.4c0.3-0.2,0.5-0.4,0.5-0.7v-1.3h-1.9v-1.1h3.2v2.8c0,0.4-0.1,0.7-0.4,1c-0.3,0.3-0.6,0.5-1.1,0.7
				s-0.9,0.3-1.3,0.3c-0.4,0.1-0.9,0.1-1.3,0.1C102.4,18.7,101.2,18.2,100.2,17.2z"/>
		</g>
		<g>
			<path fill="#3C71B9" d="M109.4,15c0-1.1,0.3-2,1-2.7c0.7-0.7,1.5-1,2.5-1c1,0,1.7,0.3,2.3,0.9c0.5,0.6,0.8,1.4,0.8,2.4l0,0.5
				h-5.2c0,0.8,0.3,1.3,0.8,1.8c0.5,0.4,1,0.6,1.7,0.6c0.4,0,0.7-0.1,1.1-0.2c0.4-0.1,0.6-0.3,0.8-0.4l0.3-0.2l0.6,1
				c-0.1,0.1-0.2,0.2-0.3,0.3s-0.5,0.3-0.9,0.4c-0.5,0.2-1,0.3-1.5,0.3c-1.1,0-2-0.4-2.7-1.1C109.7,16.9,109.4,16,109.4,15z
				 M110.8,14.2h3.8c0-0.6-0.2-1.1-0.5-1.4s-0.7-0.5-1.2-0.5c-0.5,0-1,0.2-1.4,0.5S110.9,13.6,110.8,14.2z"/>
		</g>
		<g>
			<path fill="#3C71B9" d="M117.2,18.5v-1h1.1v-4.7c0-0.2-0.1-0.3-0.3-0.3h-0.9v-1h1.6c0.6,0,0.9,0.3,0.9,0.8v0.4l0,0.4h0
				c0-0.1,0.1-0.3,0.3-0.4s0.3-0.4,0.5-0.6s0.5-0.4,0.8-0.5c0.4-0.1,0.7-0.2,1.2-0.2c0.8,0,1.4,0.2,1.8,0.7c0.4,0.4,0.6,1.1,0.6,2
				v3.5h1.1v1h-2.5v-4.2c0-0.6-0.1-1-0.3-1.3c-0.2-0.3-0.5-0.5-1.1-0.5c-0.7,0-1.3,0.3-1.7,0.8s-0.7,1.2-0.7,1.9v2.2h1.1v1H117.2z"
				/>
		</g>
		<g>
			<path fill="#3C71B9" d="M126.8,15c0-1.1,0.3-2,1-2.7c0.7-0.7,1.5-1,2.5-1c1,0,1.7,0.3,2.3,0.9c0.5,0.6,0.8,1.4,0.8,2.4l0,0.5
				h-5.2c0,0.8,0.3,1.3,0.8,1.8c0.5,0.4,1,0.6,1.7,0.6c0.4,0,0.7-0.1,1.1-0.2c0.4-0.1,0.6-0.3,0.8-0.4l0.3-0.2l0.6,1
				c-0.1,0.1-0.2,0.2-0.3,0.3s-0.5,0.3-0.9,0.4c-0.5,0.2-1,0.3-1.5,0.3c-1.1,0-2-0.4-2.7-1.1C127.1,16.9,126.8,16,126.8,15z
				 M128.2,14.2h3.8c0-0.6-0.2-1.1-0.5-1.4s-0.7-0.5-1.2-0.5c-0.5,0-1,0.2-1.4,0.5S128.3,13.6,128.2,14.2z"/>
		</g>
		<g>
			<path fill="#3C71B9" d="M134.7,18.5v-1h1.1v-4.7c0-0.2-0.1-0.3-0.3-0.3h-0.9v-1h1.6c0.6,0,0.9,0.3,0.9,0.8v0.4l0,0.5h0
				c0.2-0.5,0.5-1,0.8-1.3c0.4-0.3,0.9-0.5,1.4-0.5l0.3,0v1.3c-0.1,0-0.2,0-0.4,0c-0.7,0-1.2,0.3-1.6,0.9s-0.6,1.3-0.6,2v1.9h1v1
				H134.7z"/>
		</g>
		<g>
			<path fill="#3C71B9" d="M140.4,16.5c0-0.4,0.1-0.7,0.2-0.9c0.1-0.3,0.3-0.5,0.6-0.7c0.3-0.2,0.5-0.3,0.8-0.4
				c0.3-0.1,0.6-0.2,0.9-0.2c0.3-0.1,0.6-0.1,0.9-0.1s0.5,0,0.7,0h0.4v-0.3c0-1-0.5-1.5-1.5-1.5c-0.3,0-0.7,0.1-1,0.2
				s-0.6,0.2-0.8,0.3l-0.3,0.2l-0.5-1c0,0,0.1,0,0.1-0.1c0.1,0,0.2-0.1,0.4-0.2s0.4-0.2,0.6-0.3s0.4-0.1,0.7-0.2
				c0.3-0.1,0.6-0.1,0.9-0.1c0.9,0,1.6,0.2,2.1,0.7c0.5,0.5,0.7,1.1,0.7,2v3.2c0,0.2,0.1,0.3,0.3,0.3h0.7v1h-1.4
				c-0.6,0-0.9-0.3-0.9-0.8v-0.1l0.1-0.5h0c0,0,0,0.1-0.1,0.2c0,0.1-0.1,0.2-0.3,0.4c-0.1,0.2-0.3,0.3-0.4,0.5s-0.4,0.2-0.7,0.4
				c-0.3,0.1-0.6,0.2-0.9,0.2c-0.6,0-1.2-0.2-1.7-0.6C140.6,17.7,140.4,17.2,140.4,16.5z M141.7,16.4c0,0.3,0.1,0.6,0.3,0.9
				c0.2,0.2,0.5,0.4,0.9,0.4c0.6,0,1-0.2,1.4-0.7c0.4-0.5,0.5-1,0.5-1.6V15h-0.4C142.7,15,141.7,15.5,141.7,16.4z"/>
		</g>
		<g>
			<path fill="#3C71B9" d="M149,15.9v-3.4h-1.2v-1h1.2V9.5h1.3v1.9h1.7v1h-1.7v3.3c0,0.3,0.1,0.6,0.2,0.9c0.1,0.2,0.2,0.4,0.4,0.5
				c0.2,0.1,0.3,0.2,0.5,0.2c0.1,0,0.3,0.1,0.5,0.1l0.3,0v1.1c-0.1,0-0.3,0-0.5,0c-0.2,0-0.4,0-0.6,0c-0.2,0-0.4-0.1-0.7-0.2
				c-0.3-0.1-0.5-0.3-0.7-0.4s-0.4-0.4-0.5-0.8C149.1,16.8,149,16.4,149,15.9z"/>
		</g>
		<g>
			<path fill="#3C71B9" d="M153.3,18.5v-1h1.1v-5h-1.2v-1h2.5v6h1.1v1H153.3z M154.4,10V8.6h1.4V10H154.4z"/>
		</g>
		<g>
			<path fill="#3C71B9" d="M158.9,17.6c-0.7-0.7-1.1-1.6-1.1-2.7c0-1.1,0.4-1.9,1.1-2.6s1.6-1,2.7-1s2,0.3,2.7,1s1.1,1.6,1.1,2.6
				c0,1.1-0.4,2-1.1,2.7c-0.7,0.7-1.6,1.1-2.7,1.1S159.7,18.3,158.9,17.6z M159.2,14.9c0,0.7,0.2,1.3,0.7,1.8c0.5,0.5,1,0.7,1.7,0.7
				c0.7,0,1.2-0.2,1.7-0.7c0.5-0.5,0.7-1.1,0.7-1.8c0-0.7-0.2-1.3-0.7-1.8c-0.5-0.5-1-0.7-1.7-0.7c-0.7,0-1.3,0.2-1.7,0.7
				C159.4,13.6,159.2,14.2,159.2,14.9z"/>
		</g>
		<g>
			<path fill="#3C71B9" d="M166.6,18.5v-1h1.1v-4.7c0-0.2-0.1-0.3-0.3-0.3h-0.9v-1h1.6c0.6,0,0.9,0.3,0.9,0.8v0.4l0,0.4h0
				c0-0.1,0.1-0.3,0.3-0.4c0.1-0.2,0.3-0.4,0.5-0.6s0.5-0.4,0.8-0.5s0.7-0.2,1.2-0.2c0.8,0,1.4,0.2,1.8,0.7c0.4,0.4,0.6,1.1,0.6,2
				v3.5h1.1v1h-2.5v-4.2c0-0.6-0.1-1-0.3-1.3c-0.2-0.3-0.5-0.5-1.1-0.5c-0.7,0-1.3,0.3-1.7,0.8s-0.7,1.2-0.7,1.9v2.2h1.1v1H166.6z"
				/>
		</g>
	</g>
	<g>
		<g>
			<g>
				<g>
					<path fill="#3C71B9" d="M37.8,124.5v-0.9h3v0.9h-1l1.3,5.6l0.1,0.6h0c0-0.2,0.1-0.4,0.1-0.6l1.8-6.5h1L46,130l0.1,0.6h0
						c0-0.2,0-0.4,0.1-0.6l1.3-5.6h-1v-0.9h3v0.9h-0.8l-1.9,7.5h-1.4l-1.7-6l-0.1-0.7h0c0,0.2-0.1,0.5-0.1,0.7l-1.7,6h-1.4l-1.9-7.5
						H37.8z"/>
				</g>
				<g>
					<path fill="#3C71B9" d="M50.1,132v-0.9h0.9v-4.3h-1v-0.9h2.2v5.2h1v0.9H50.1z M51,124.7v-1.2h1.2v1.2H51z"/>
				</g>
				<g>
					<path fill="#3C71B9" d="M54.1,132v-0.9h0.9v-4c0-0.2-0.1-0.3-0.3-0.3h-0.7v-0.9h1.4c0.5,0,0.8,0.2,0.8,0.7v0.3l0,0.3h0
						c0-0.1,0.1-0.2,0.2-0.4c0.1-0.1,0.2-0.3,0.4-0.5c0.2-0.2,0.4-0.3,0.7-0.4c0.3-0.1,0.6-0.2,1-0.2c0.7,0,1.2,0.2,1.5,0.6
						c0.3,0.4,0.5,1,0.5,1.8v3h1v0.9h-2.1v-3.6c0-0.5-0.1-0.9-0.2-1.1c-0.2-0.3-0.5-0.4-0.9-0.4c-0.6,0-1.1,0.2-1.5,0.7
						s-0.6,1-0.6,1.6v1.9h1v0.9H54.1z"/>
				</g>
				<g>
					<path fill="#3C71B9" d="M62.3,129c0-1,0.3-1.7,0.8-2.3c0.5-0.6,1.2-0.9,2-0.9c0.3,0,0.5,0,0.7,0.1c0.2,0.1,0.4,0.2,0.5,0.3
						c0.1,0.1,0.3,0.2,0.3,0.3c0.1,0.1,0.2,0.2,0.2,0.3l0.1,0.1h0c0-0.1,0-0.3,0-0.5v-1.9h-1v-0.9h2.2v7.3c0,0.2,0.1,0.3,0.3,0.3H69
						v0.9h-1.2c-0.5,0-0.8-0.2-0.8-0.7v-0.1l0-0.3h0c0,0,0,0.1-0.1,0.1c0,0.1-0.1,0.2-0.2,0.3c-0.1,0.1-0.2,0.3-0.4,0.4
						c-0.1,0.1-0.3,0.2-0.6,0.3s-0.5,0.1-0.8,0.1c-0.8,0-1.5-0.3-1.9-0.9S62.3,129.9,62.3,129z M63.5,129c0,0.7,0.2,1.2,0.5,1.6
						s0.7,0.6,1.2,0.6c0.5,0,0.9-0.2,1.2-0.5c0.3-0.4,0.5-0.9,0.5-1.6c0-0.6-0.2-1.1-0.5-1.5c-0.3-0.4-0.7-0.6-1.3-0.6
						c-0.5,0-0.9,0.2-1.3,0.6S63.5,128.3,63.5,129z"/>
				</g>
			</g>
			<g>
				<g>
					<circle fill="#3C71B9" cx="53.8" cy="77.5" r="38.5"/>
					<path fill="#FFFFFF" d="M53.8,118c-22.3,0-40.5-18.2-40.5-40.5S31.4,37,53.8,37s40.5,18.2,40.5,40.5S76.1,118,53.8,118z
						 M53.8,41c-20.1,0-36.5,16.4-36.5,36.5S33.6,114,53.8,114s36.5-16.4,36.5-36.5S73.9,41,53.8,41z"/>
				</g>
				<g>
					<path fill="#FFFFFF" d="M69.8,86.5l-13.6-9.6c0.2-0.4,0.4-0.8,0.4-1.3c0-1-0.6-1.9-1.5-2.3l7-15.3l-0.3-8.5l-1.6-0.4l-4.5,7.2
						l-1.5,16.8c-0.1,0-0.1,0-0.2,0c-1.4,0-2.5,1.1-2.5,2.5c0,0.1,0,0.2,0,0.3L35,77.4l-7.2,4.5l0.4,1.6l8.5,0.3l15.2-7
						c0.3,0.5,0.7,1.3,1.3,1.5L52,116h4.1l-1.3-37.8c0.3-0.1,0.5-0.4,0.7-0.5l9.6,13.5l7.5,4l1.1-1.2L69.8,86.5z"/>
				</g>
			</g>
		</g>
		<g>
			<g>
				<g>
					<path fill="#3C71B9" d="M129.3,129.5h1.1v0.6c0,0.3,0.2,0.5,0.5,0.7c0.3,0.2,0.7,0.3,1.2,0.3c0.5,0,0.9-0.1,1.2-0.3
						c0.3-0.2,0.5-0.5,0.5-1c0-0.5-0.3-0.9-0.9-1.2c-0.2-0.1-0.6-0.2-1.1-0.5c-0.4-0.1-0.6-0.3-0.8-0.4c-0.2-0.1-0.4-0.2-0.7-0.4
						s-0.4-0.4-0.6-0.7c-0.1-0.3-0.2-0.6-0.2-0.9c0-0.8,0.3-1.3,0.8-1.7s1.2-0.6,1.9-0.6c0.7,0,1.3,0.1,1.8,0.4s0.8,0.6,0.8,1v1
						h-1.1v-0.6c0-0.2-0.1-0.4-0.4-0.6c-0.3-0.1-0.6-0.2-1-0.2c-0.4,0-0.8,0.1-1.1,0.3c-0.3,0.2-0.4,0.5-0.4,0.9
						c0,0.2,0,0.3,0.1,0.5s0.1,0.3,0.2,0.3s0.2,0.2,0.4,0.3c0.2,0.1,0.4,0.2,0.5,0.2c0.1,0,0.3,0.1,0.6,0.2c0.3,0.1,0.6,0.2,0.8,0.3
						s0.4,0.2,0.6,0.3c0.3,0.2,0.4,0.3,0.6,0.5c0.1,0.2,0.2,0.4,0.3,0.6s0.2,0.5,0.2,0.8c0,0.8-0.3,1.4-0.8,1.8
						c-0.6,0.4-1.2,0.6-2.1,0.6c-0.7,0-1.4-0.2-1.9-0.5s-0.9-0.8-0.9-1.3V129.5z"/>
				</g>
				<g>
					<path fill="#3C71B9" d="M137,131.2c-0.6-0.6-1-1.4-1-2.3c0-0.9,0.3-1.7,0.9-2.3c0.6-0.6,1.4-0.9,2.3-0.9s1.7,0.3,2.3,0.9
						c0.6,0.6,0.9,1.4,0.9,2.3c0,0.9-0.3,1.7-1,2.3c-0.6,0.6-1.4,0.9-2.3,0.9C138.4,132.1,137.7,131.8,137,131.2z M137.3,129
						c0,0.6,0.2,1.2,0.6,1.6s0.9,0.6,1.5,0.6c0.6,0,1.1-0.2,1.5-0.6s0.6-0.9,0.6-1.6s-0.2-1.1-0.6-1.5s-0.9-0.6-1.5-0.6
						c-0.6,0-1.1,0.2-1.5,0.6S137.3,128.3,137.3,129z"/>
				</g>
				<g>
					<path fill="#3C71B9" d="M144.1,130.3v-5.8h-1v-0.9h2.2v6.7c0,0.3,0,0.5,0.1,0.6c0.1,0.1,0.3,0.2,0.5,0.2l0.3,0l0,1
						c-0.2,0-0.3,0-0.5,0C144.7,132,144.1,131.4,144.1,130.3z"/>
				</g>
				<g>
					<path fill="#3C71B9" d="M147,130.3c0-0.3,0.1-0.6,0.2-0.8s0.3-0.4,0.5-0.6c0.2-0.1,0.4-0.3,0.7-0.4s0.5-0.2,0.8-0.2
						s0.5-0.1,0.7-0.1c0.2,0,0.4,0,0.6,0h0.4V128c0-0.9-0.4-1.3-1.3-1.3c-0.3,0-0.6,0-0.9,0.1c-0.3,0.1-0.5,0.2-0.6,0.3l-0.2,0.2
						l-0.5-0.8c0,0,0.1,0,0.1-0.1c0,0,0.1-0.1,0.3-0.2s0.3-0.2,0.5-0.2s0.4-0.1,0.6-0.2c0.3-0.1,0.5-0.1,0.8-0.1
						c0.8,0,1.4,0.2,1.8,0.6s0.6,1,0.6,1.7v2.7c0,0.2,0.1,0.3,0.3,0.3h0.6v0.9h-1.2c-0.5,0-0.8-0.2-0.8-0.7v-0.1l0-0.4h0
						c0,0,0,0.1-0.1,0.1c0,0.1-0.1,0.2-0.2,0.3c-0.1,0.1-0.2,0.3-0.4,0.4s-0.3,0.2-0.6,0.3s-0.5,0.1-0.8,0.1c-0.6,0-1-0.2-1.4-0.5
						S147,130.9,147,130.3z M148.2,130.2c0,0.3,0.1,0.5,0.3,0.7c0.2,0.2,0.5,0.3,0.8,0.3c0.5,0,0.9-0.2,1.2-0.6
						c0.3-0.4,0.5-0.9,0.5-1.4V129h-0.3C149,129,148.2,129.4,148.2,130.2z"/>
				</g>
				<g>
					<path fill="#3C71B9" d="M153.9,132v-0.9h0.9v-4c0-0.2-0.1-0.3-0.3-0.3h-0.8v-0.9h1.4c0.5,0,0.8,0.2,0.8,0.7v0.4l0,0.4h0
						c0.1-0.5,0.4-0.8,0.7-1.1c0.3-0.3,0.7-0.4,1.2-0.4l0.3,0v1.2c-0.1,0-0.2,0-0.3,0c-0.6,0-1.1,0.2-1.4,0.8s-0.5,1.1-0.5,1.7v1.6
						h0.9v0.9H153.9z"/>
				</g>
			</g>
			<g>
				<g>
					<circle fill="#3C71B9" cx="143.8" cy="77.5" r="38.5"/>
					<path fill="#FFFFFF" d="M143.8,118c-22.3,0-40.5-18.2-40.5-40.5S121.4,37,143.8,37s40.5,18.2,40.5,40.5S166.1,118,143.8,118z
						 M143.8,41c-20.1,0-36.5,16.4-36.5,36.5s16.4,36.5,36.5,36.5s36.5-16.4,36.5-36.5S163.9,41,143.8,41z"/>
				</g>
				<g>
					<g>
						<circle fill="#FFFFFF" cx="136.8" cy="70.5" r="11.5"/>
					</g>
					<g>
						<polygon fill="#FFFFFF" points="133.4,56 136.8,50.1 140.2,56 						"/>
					</g>
					<g>
						<polygon fill="#FFFFFF" points="140.2,85 136.8,90.9 133.4,85 						"/>
					</g>
					<g>
						<polygon fill="#FFFFFF" points="151,67.1 156.9,70.5 151,73.9 						"/>
					</g>
					<g>
						<polygon fill="#FFFFFF" points="122,73.9 116.1,70.5 122,67.1 						"/>
					</g>
					<g>
						<polygon fill="#FFFFFF" points="124.1,62.6 122.3,56 128.9,57.8 						"/>
					</g>
					<g>
						<polygon fill="#FFFFFF" points="149.5,78.3 151.2,84.9 144.6,83.1 						"/>
					</g>
					<g>
						<polygon fill="#FFFFFF" points="144.6,57.8 151.2,56.1 149.4,62.7 						"/>
					</g>
					<g>
						<polygon fill="#FFFFFF" points="128.9,83.2 122.3,84.9 124.1,78.3 						"/>
					</g>
				</g>
				<g>
					<g>
						<path fill="#FFFFFF" d="M142.3,109.5c-0.5,0-1-0.2-1.3-0.7c-0.4-0.7-0.2-1.6,0.5-2.1l27.5-17.5c0.7-0.4,1.6-0.2,2.1,0.5
							c0.4,0.7,0.2,1.6-0.5,2.1l-27.5,17.5C142.8,109.4,142.5,109.5,142.3,109.5z"/>
					</g>
					<g>
						<rect x="164" y="94" fill="#FFFFFF" width="2" height="19"/>
					</g>
					<g>
						<rect x="148" y="104" fill="#FFFFFF" width="2" height="15"/>
					</g>
				</g>
			</g>
		</g>
	</g>
</g>
</svg>
