<?xml version="1.0" encoding="utf-8"?>
<!-- Generator: Adobe Illustrator 15.1.0, SVG Export Plug-In . SVG Version: 6.00 Build 0)  -->
<!DOCTYPE svg PUBLIC "-//W3C//DTD SVG 1.1//EN" "http://www.w3.org/Graphics/SVG/1.1/DTD/svg11.dtd">
<svg version="1.1" id="Layer_1" xmlns="http://www.w3.org/2000/svg" xmlns:xlink="http://www.w3.org/1999/xlink" x="0px" y="0px"
	 width="200px" height="141px" viewBox="0 0 200 141" enable-background="new 0 0 200 141" xml:space="preserve">
<g>
	<g>
		<g>
			<g>
				<path fill="#FFFFFF" d="M200,31c0-2.2-1.8-4-4-4H4c-2.2,0-4,1.8-4,4v106c0,2.2,1.8,4,4,4h192c2.2,0,4-1.8,4-4V31z"/>
			</g>
		</g>
		<g>
			<g>
				<path fill="#FFFFFF" d="M200,4c0-2.2-1.8-4-4-4H4C1.8,0,0,1.8,0,4v18c0,2.2,1.8,4,4,4h192c2.2,0,4-1.8,4-4V4z"/>
			</g>
		</g>
	</g>
	<g>
		<g>
			<path fill="#3C71B9" d="M45,18.5v-1.1h1.2V9.7H45V8.6h3.9v1.1h-1.2V13h5.1V9.7h-1.2V8.6h3.9v1.1h-1.2v7.7h1.2v1.1h-3.9v-1.1h1.2
				v-3.3h-5.1v3.3h1.2v1.1H45z"/>
		</g>
		<g>
			<path fill="#3C71B9" d="M56.8,20c0.3,0.2,0.6,0.3,1,0.3c0.6,0,1-0.3,1.3-1l0.3-0.7l-2.5-6.2H56v-1h3.2v1h-0.9l1.6,4.2l0.1,0.6h0
				c0-0.2,0.1-0.4,0.2-0.6l1.6-4.2h-0.9v-1h3.1v1h-0.9l-2.8,7.2c-0.2,0.6-0.6,1-1,1.4c-0.4,0.3-0.9,0.5-1.5,0.5
				c-0.3,0-0.5,0-0.8-0.1c-0.3-0.1-0.4-0.1-0.6-0.2L56.4,21L56.8,20z"/>
		</g>
		<g>
			<path fill="#3C71B9" d="M64.7,18.5v-1.1h1.2V9.8h-1.2V8.6h3.9v1.1h-1.2v7.6h3.4v-1.6H72v2.7H64.7z"/>
		</g>
		<g>
			<path fill="#3C71B9" d="M73.1,18.5v-1h1.1v-5H73v-1h2.5v6h1.1v1H73.1z M74.1,10V8.6h1.4V10H74.1z"/>
		</g>
		<g>
			<path fill="#3C71B9" d="M77.8,18.5v-1h1.1v-4.7c0-0.2-0.1-0.3-0.3-0.3h-0.9v-1h1.6c0.6,0,0.9,0.3,0.9,0.8v0.4l0,0.4h0
				c0-0.1,0.1-0.3,0.3-0.4c0.1-0.2,0.3-0.4,0.5-0.6s0.5-0.4,0.8-0.5c0.4-0.1,0.7-0.2,1.2-0.2c0.8,0,1.4,0.2,1.8,0.7
				c0.4,0.4,0.6,1.1,0.6,2v3.5h1.1v1h-2.5v-4.2c0-0.6-0.1-1-0.3-1.3s-0.5-0.5-1.1-0.5c-0.7,0-1.3,0.3-1.7,0.8s-0.7,1.2-0.7,1.9v2.2
				h1.1v1H77.8z"/>
		</g>
		<g>
			<path fill="#3C71B9" d="M87.2,18.5v-1h1.1V9.7h-1.2v-1h2.5v5.5h1l1.4-1.7h-0.9v-1h3.2v1h-0.9l-1.8,2v0c0,0,0,0,0.1,0
				c0,0,0.1,0.1,0.2,0.2c0.1,0.1,0.2,0.2,0.3,0.4l1.2,2.1c0.1,0.2,0.3,0.3,0.6,0.3h0.4v1h-1.1c-0.3,0-0.6,0-0.7-0.1
				c-0.1-0.1-0.3-0.3-0.4-0.5l-1.4-2.4c-0.1-0.2-0.3-0.3-0.7-0.3h-0.6v2.3h1v1H87.2z"/>
		</g>
		<g>
			<path fill="#3C71B9" d="M96.4,11.7v-3h-1.2V8.1h3.1v0.5h-1.2v3H96.4z M98.6,11.7l0.3-3.6h0.6l0.8,1.9l0.1,0.3h0
				c0-0.1,0.1-0.2,0.1-0.3l0.8-1.9h0.6l0.3,3.6h-0.6l-0.2-2.1l0-0.2h0l-0.8,1.7h-0.5l-0.8-1.7h0l0,0.2l-0.2,2.1H98.6z"/>
		</g>
		<g>
			<path fill="#3C71B9" d="M107,15.5h1.3v0.7c0,0.4,0.2,0.6,0.6,0.8c0.4,0.2,0.9,0.3,1.4,0.3c0.6,0,1.1-0.1,1.4-0.4
				c0.4-0.3,0.5-0.6,0.5-1.1c0-0.6-0.4-1.1-1.1-1.5c-0.2-0.1-0.6-0.3-1.3-0.5c-0.4-0.2-0.7-0.3-1-0.4s-0.5-0.3-0.8-0.5
				s-0.5-0.5-0.6-0.8c-0.1-0.3-0.2-0.7-0.2-1.1c0-0.9,0.3-1.5,0.9-2s1.4-0.7,2.3-0.7c0.8,0,1.5,0.1,2.1,0.4c0.6,0.3,0.9,0.7,0.9,1.2
				v1.2h-1.3v-0.7c0-0.3-0.2-0.5-0.5-0.6c-0.3-0.2-0.7-0.2-1.2-0.2c-0.5,0-0.9,0.1-1.2,0.3c-0.3,0.2-0.5,0.6-0.5,1
				c0,0.2,0,0.4,0.1,0.6s0.2,0.3,0.3,0.4c0.1,0.1,0.3,0.2,0.5,0.3s0.4,0.2,0.5,0.3c0.1,0.1,0.3,0.1,0.7,0.3c0.4,0.1,0.7,0.3,0.9,0.3
				c0.2,0.1,0.5,0.2,0.8,0.4c0.3,0.2,0.5,0.4,0.7,0.5c0.2,0.2,0.3,0.4,0.4,0.7c0.1,0.3,0.2,0.6,0.2,1c0,0.9-0.3,1.6-1,2.1
				c-0.6,0.5-1.4,0.8-2.4,0.8c-0.8,0-1.6-0.2-2.3-0.6s-1-0.9-1-1.5V15.5z"/>
		</g>
		<g>
			<path fill="#3C71B9" d="M115.2,20c0.3,0.2,0.6,0.3,1,0.3c0.6,0,1-0.3,1.3-1l0.3-0.7l-2.5-6.2h-0.9v-1h3.2v1h-0.9l1.6,4.2l0.1,0.6
				h0c0-0.2,0.1-0.4,0.2-0.6l1.6-4.2h-0.9v-1h3.1v1h-0.9l-2.8,7.2c-0.2,0.6-0.6,1-1,1.4c-0.4,0.3-0.9,0.5-1.5,0.5
				c-0.3,0-0.5,0-0.8-0.1s-0.4-0.1-0.6-0.2l-0.2-0.1L115.2,20z"/>
		</g>
		<g>
			<path fill="#3C71B9" d="M123.1,17v-0.8h1.2v0.5c0,0.3,0.2,0.5,0.5,0.7c0.3,0.2,0.7,0.2,1.1,0.2c0.4,0,0.8-0.1,1-0.2
				s0.4-0.4,0.4-0.7c0-0.3-0.1-0.5-0.4-0.7c-0.2-0.2-0.6-0.3-1.2-0.5c-0.1,0-0.1-0.1-0.2-0.1c-0.3-0.1-0.6-0.2-0.8-0.3
				s-0.4-0.2-0.7-0.4c-0.2-0.2-0.4-0.4-0.6-0.6s-0.2-0.5-0.2-0.8c0-0.6,0.3-1.1,0.8-1.5c0.5-0.3,1.1-0.5,1.8-0.5
				c0.6,0,1.2,0.1,1.7,0.4c0.5,0.2,0.8,0.6,0.8,1.1v0.9h-1.2v-0.5c0-0.2-0.1-0.4-0.4-0.5c-0.2-0.1-0.5-0.2-0.9-0.2
				c-0.4,0-0.7,0.1-0.9,0.2c-0.2,0.1-0.4,0.4-0.4,0.6c0,0.2,0,0.3,0.1,0.4s0.2,0.2,0.4,0.3c0.2,0.1,0.3,0.2,0.5,0.2
				c0.1,0.1,0.4,0.1,0.6,0.2c0.3,0.1,0.6,0.2,0.8,0.3s0.5,0.2,0.7,0.4c0.3,0.2,0.5,0.4,0.6,0.6c0.1,0.2,0.2,0.5,0.2,0.8
				c0,0.7-0.3,1.2-0.8,1.5c-0.5,0.4-1.2,0.6-2,0.6c-0.7,0-1.3-0.2-1.9-0.5C123.4,17.9,123.1,17.5,123.1,17z"/>
		</g>
		<g>
			<path fill="#3C71B9" d="M130.7,15.9v-3.4h-1.2v-1h1.2V9.5h1.3v1.9h1.7v1h-1.7v3.3c0,0.3,0.1,0.6,0.2,0.9c0.1,0.2,0.2,0.4,0.4,0.5
				c0.2,0.1,0.3,0.2,0.5,0.2c0.1,0,0.3,0.1,0.5,0.1l0.3,0v1.1c-0.1,0-0.3,0-0.5,0c-0.2,0-0.4,0-0.6,0c-0.2,0-0.4-0.1-0.7-0.2
				c-0.3-0.1-0.5-0.3-0.7-0.4s-0.4-0.4-0.5-0.8C130.8,16.8,130.7,16.4,130.7,15.9z"/>
		</g>
		<g>
			<path fill="#3C71B9" d="M134.9,15c0-1.1,0.3-2,1-2.7c0.7-0.7,1.5-1,2.5-1c1,0,1.7,0.3,2.3,0.9c0.5,0.6,0.8,1.4,0.8,2.4l0,0.5
				h-5.2c0,0.8,0.3,1.3,0.8,1.8c0.5,0.4,1,0.6,1.7,0.6c0.4,0,0.7-0.1,1.1-0.2c0.4-0.1,0.6-0.3,0.8-0.4l0.3-0.2l0.6,1
				c-0.1,0.1-0.2,0.2-0.3,0.3c-0.1,0.1-0.5,0.3-0.9,0.4c-0.5,0.2-1,0.3-1.5,0.3c-1.1,0-2-0.4-2.7-1.1S134.9,16,134.9,15z
				 M136.3,14.2h3.8c0-0.6-0.2-1.1-0.5-1.4c-0.3-0.3-0.7-0.5-1.2-0.5c-0.5,0-1,0.2-1.4,0.5S136.4,13.6,136.3,14.2z"/>
		</g>
		<g>
			<path fill="#3C71B9" d="M142.8,18.5v-1h1.1v-4.7c0-0.2-0.1-0.3-0.3-0.3h-0.9v-1h1.6c0.6,0,0.9,0.3,0.9,0.8v0.4l0,0.4h0
				c0.2-0.4,0.5-0.8,1-1.2c0.5-0.4,1-0.5,1.5-0.5c1.1,0,1.8,0.6,2.1,1.7h0c0.2-0.5,0.5-0.9,1-1.2c0.5-0.3,1-0.5,1.5-0.5
				c1.5,0,2.3,0.9,2.3,2.7v3.5h1.1v1h-2.5v-4.2c0-0.6-0.1-1-0.3-1.3c-0.2-0.3-0.5-0.5-1-0.5c-0.6,0-1.1,0.3-1.5,0.8
				c-0.4,0.5-0.6,1.2-0.6,1.9v2.2h1.1v1h-2.5v-4.2c0-0.6-0.1-1-0.2-1.3s-0.5-0.5-1-0.5c-0.6,0-1.1,0.3-1.5,0.9
				c-0.4,0.6-0.6,1.2-0.6,2v2.2h1.1v1H142.8z"/>
		</g>
	</g>
	<g>
		<g>
			<g>
				<path fill="#3C71B9" d="M47.8,132v-0.9h1.1v-6.6h-1.1v-0.9h3.3v0.9h-1.1v2.8h4.4v-2.8h-1.1v-0.9h3.3v0.9h-1.1v6.6h1.1v0.9h-3.3
					v-0.9h1.1v-2.8h-4.4v2.8h1.1v0.9H47.8z"/>
			</g>
			<g>
				<path fill="#3C71B9" d="M57.9,133.3c0.2,0.2,0.5,0.3,0.9,0.3c0.5,0,0.9-0.3,1.1-0.8l0.3-0.6l-2.1-5.3h-0.8v-0.9H60v0.9h-0.8
					l1.4,3.6l0.1,0.5h0c0-0.2,0.1-0.4,0.1-0.5l1.3-3.6h-0.8v-0.9h2.7v0.9h-0.8L61,133c-0.2,0.5-0.5,0.9-0.9,1.2
					c-0.4,0.3-0.8,0.4-1.3,0.4c-0.2,0-0.5,0-0.7-0.1c-0.2-0.1-0.4-0.1-0.5-0.2l-0.2-0.1L57.9,133.3z"/>
			</g>
			<g>
				<path fill="#3C71B9" d="M64.7,129c0-1,0.3-1.7,0.8-2.3c0.5-0.6,1.2-0.9,2-0.9c0.3,0,0.5,0,0.7,0.1c0.2,0.1,0.4,0.2,0.5,0.3
					c0.1,0.1,0.3,0.2,0.3,0.3c0.1,0.1,0.2,0.2,0.2,0.3l0.1,0.1h0c0-0.1,0-0.3,0-0.5v-1.9h-1v-0.9h2.2v7.3c0,0.2,0.1,0.3,0.3,0.3h0.6
					v0.9h-1.2c-0.5,0-0.8-0.2-0.8-0.7v-0.1l0-0.3h0c0,0,0,0.1-0.1,0.1c0,0.1-0.1,0.2-0.2,0.3c-0.1,0.1-0.2,0.3-0.4,0.4
					c-0.1,0.1-0.3,0.2-0.6,0.3s-0.5,0.1-0.8,0.1c-0.8,0-1.5-0.3-1.9-0.9S64.7,129.9,64.7,129z M65.9,129c0,0.7,0.2,1.2,0.5,1.6
					s0.7,0.6,1.2,0.6c0.5,0,0.9-0.2,1.2-0.5c0.3-0.4,0.5-0.9,0.5-1.6c0-0.6-0.2-1.1-0.5-1.5c-0.3-0.4-0.7-0.6-1.3-0.6
					c-0.5,0-0.9,0.2-1.3,0.6S65.9,128.3,65.9,129z"/>
			</g>
			<g>
				<path fill="#3C71B9" d="M72.4,132v-0.9h0.9v-4c0-0.2-0.1-0.3-0.3-0.3h-0.8v-0.9h1.4c0.5,0,0.8,0.2,0.8,0.7v0.4l0,0.4h0
					c0.1-0.5,0.4-0.8,0.7-1.1c0.3-0.3,0.7-0.4,1.2-0.4l0.3,0v1.2c-0.1,0-0.2,0-0.3,0c-0.6,0-1.1,0.2-1.4,0.8s-0.5,1.1-0.5,1.7v1.6
					h0.9v0.9H72.4z"/>
			</g>
			<g>
				<path fill="#3C71B9" d="M78.2,131.2c-0.6-0.6-1-1.4-1-2.3c0-0.9,0.3-1.7,0.9-2.3c0.6-0.6,1.4-0.9,2.3-0.9s1.7,0.3,2.3,0.9
					c0.6,0.6,0.9,1.4,0.9,2.3c0,0.9-0.3,1.7-1,2.3c-0.6,0.6-1.4,0.9-2.3,0.9C79.6,132.1,78.9,131.8,78.2,131.2z M78.5,129
					c0,0.6,0.2,1.2,0.6,1.6s0.9,0.6,1.5,0.6c0.6,0,1.1-0.2,1.5-0.6c0.4-0.4,0.6-0.9,0.6-1.6s-0.2-1.1-0.6-1.5
					c-0.4-0.4-0.9-0.6-1.5-0.6c-0.6,0-1.1,0.2-1.5,0.6S78.5,128.3,78.5,129z"/>
			</g>
			<g>
				<path fill="#3C71B9" d="M85.8,133.1c0.5,0.3,1.1,0.4,1.7,0.4c0.6,0,1-0.1,1.4-0.4s0.5-0.7,0.5-1.3v-0.5l0-0.4h0
					c-0.4,0.7-1,1-1.8,1c-0.8,0-1.5-0.3-2-0.9c-0.5-0.6-0.7-1.3-0.7-2.2c0-0.9,0.2-1.6,0.7-2.2s1.1-0.8,2-0.8c0.4,0,0.8,0.1,1.2,0.3
					c0.4,0.2,0.6,0.4,0.8,0.7h0c0-0.1,0-0.1,0-0.2c0-0.4,0.2-0.6,0.7-0.6h1.3v0.9h-0.7c-0.2,0-0.3,0.1-0.3,0.2v4.7
					c0,0.5-0.1,0.9-0.3,1.3c-0.2,0.4-0.4,0.7-0.7,0.9c-0.3,0.2-0.6,0.4-1,0.5c-0.4,0.1-0.7,0.2-1.1,0.2c-0.7,0-1.4-0.2-2.1-0.5
					L85.8,133.1z M87.8,130.9c0.5,0,0.9-0.2,1.2-0.5c0.3-0.3,0.5-0.9,0.5-1.6c0-1.4-0.6-2-1.7-2c-0.5,0-0.9,0.2-1.2,0.5
					c-0.3,0.4-0.4,0.8-0.4,1.5c0,0.6,0.2,1.2,0.5,1.5C86.8,130.7,87.2,130.9,87.8,130.9z"/>
			</g>
			<g>
				<path fill="#3C71B9" d="M92.3,129c0-1,0.3-1.7,0.9-2.3c0.6-0.6,1.3-0.9,2.2-0.9c0.8,0,1.5,0.3,1.9,0.8c0.5,0.5,0.7,1.2,0.7,2
					l0,0.4h-4.4c0,0.6,0.2,1.2,0.6,1.5c0.4,0.4,0.9,0.5,1.5,0.5c0.3,0,0.6-0.1,0.9-0.2c0.3-0.1,0.5-0.2,0.7-0.3l0.2-0.2l0.5,0.9
					c-0.1,0.1-0.2,0.1-0.3,0.2s-0.4,0.2-0.8,0.4c-0.4,0.2-0.8,0.2-1.3,0.2c-0.9,0-1.7-0.3-2.3-0.9S92.3,129.9,92.3,129z M93.5,128.3
					h3.2c0-0.5-0.2-0.9-0.4-1.2s-0.6-0.4-1-0.4c-0.4,0-0.8,0.1-1.2,0.4C93.8,127.4,93.6,127.8,93.5,128.3z"/>
			</g>
			<g>
				<path fill="#3C71B9" d="M99,132v-0.9h0.9v-4c0-0.2-0.1-0.3-0.3-0.3H99v-0.9h1.4c0.5,0,0.8,0.2,0.8,0.7v0.3l0,0.3h0
					c0-0.1,0.1-0.2,0.2-0.4c0.1-0.1,0.2-0.3,0.4-0.5s0.4-0.3,0.7-0.4s0.6-0.2,1-0.2c0.7,0,1.2,0.2,1.5,0.6c0.3,0.4,0.5,1,0.5,1.8v3
					h1v0.9h-2.1v-3.6c0-0.5-0.1-0.9-0.2-1.1s-0.5-0.4-0.9-0.4c-0.6,0-1.1,0.2-1.5,0.7s-0.6,1-0.6,1.6v1.9h1v0.9H99z"/>
			</g>
			<g>
				<path fill="#3C71B9" d="M110.2,130.7V130h1v0.4c0,0.2,0.1,0.4,0.4,0.6c0.3,0.1,0.6,0.2,1,0.2c0.4,0,0.6-0.1,0.9-0.2
					c0.2-0.1,0.3-0.3,0.3-0.6c0-0.3-0.1-0.5-0.3-0.6s-0.6-0.3-1-0.5c-0.1,0-0.1,0-0.2-0.1c-0.3-0.1-0.5-0.2-0.7-0.3
					c-0.2-0.1-0.4-0.2-0.6-0.3c-0.2-0.1-0.4-0.3-0.5-0.5s-0.2-0.4-0.2-0.7c0-0.6,0.2-1,0.7-1.3c0.4-0.3,1-0.4,1.6-0.4
					c0.5,0,1,0.1,1.4,0.3c0.4,0.2,0.7,0.5,0.7,0.9v0.7h-1v-0.4c0-0.2-0.1-0.3-0.3-0.4c-0.2-0.1-0.5-0.2-0.8-0.2
					c-0.3,0-0.6,0.1-0.8,0.2s-0.3,0.3-0.3,0.5c0,0.1,0,0.3,0.1,0.4c0.1,0.1,0.2,0.2,0.3,0.3c0.2,0.1,0.3,0.2,0.4,0.2
					c0.1,0.1,0.3,0.1,0.5,0.2c0.3,0.1,0.5,0.2,0.7,0.3c0.2,0.1,0.4,0.2,0.6,0.3c0.2,0.1,0.4,0.3,0.5,0.5c0.1,0.2,0.2,0.4,0.2,0.7
					c0,0.6-0.2,1-0.7,1.3s-1,0.5-1.8,0.5c-0.6,0-1.2-0.1-1.6-0.4C110.5,131.5,110.2,131.1,110.2,130.7z"/>
			</g>
			<g>
				<path fill="#3C71B9" d="M116.7,129.8v-3h-1v-0.9h1v-1.7h1.1v1.7h1.5v0.9h-1.5v2.8c0,0.3,0,0.5,0.1,0.7c0.1,0.2,0.2,0.3,0.4,0.4
					c0.1,0.1,0.3,0.1,0.4,0.2c0.1,0,0.3,0,0.4,0l0.3,0v1c-0.1,0-0.3,0-0.4,0c-0.2,0-0.4,0-0.5,0c-0.2,0-0.4-0.1-0.6-0.2
					c-0.2-0.1-0.4-0.2-0.6-0.4c-0.2-0.2-0.3-0.4-0.4-0.7C116.8,130.5,116.7,130.2,116.7,129.8z"/>
			</g>
			<g>
				<path fill="#3C71B9" d="M121.3,131.2c-0.6-0.6-1-1.4-1-2.3c0-0.9,0.3-1.7,0.9-2.3c0.6-0.6,1.4-0.9,2.3-0.9s1.7,0.3,2.3,0.9
					c0.6,0.6,0.9,1.4,0.9,2.3c0,0.9-0.3,1.7-1,2.3c-0.6,0.6-1.4,0.9-2.3,0.9S121.9,131.8,121.3,131.2z M121.5,129
					c0,0.6,0.2,1.2,0.6,1.6s0.9,0.6,1.5,0.6c0.6,0,1.1-0.2,1.5-0.6c0.4-0.4,0.6-0.9,0.6-1.6s-0.2-1.1-0.6-1.5
					c-0.4-0.4-0.9-0.6-1.5-0.6c-0.6,0-1.1,0.2-1.5,0.6S121.5,128.3,121.5,129z"/>
			</g>
			<g>
				<path fill="#3C71B9" d="M127.9,132v-0.9h0.9v-4c0-0.2-0.1-0.3-0.3-0.3h-0.8v-0.9h1.4c0.5,0,0.8,0.2,0.8,0.7v0.4l0,0.4h0
					c0.1-0.5,0.4-0.8,0.7-1.1c0.3-0.3,0.7-0.4,1.2-0.4l0.3,0v1.2c-0.1,0-0.2,0-0.3,0c-0.6,0-1.1,0.2-1.4,0.8s-0.5,1.1-0.5,1.7v1.6
					h0.9v0.9H127.9z"/>
			</g>
			<g>
				<path fill="#3C71B9" d="M132.8,130.3c0-0.3,0.1-0.6,0.2-0.8s0.3-0.4,0.5-0.6c0.2-0.1,0.4-0.3,0.7-0.4c0.2-0.1,0.5-0.2,0.8-0.2
					s0.5-0.1,0.7-0.1c0.2,0,0.4,0,0.6,0h0.4V128c0-0.9-0.4-1.3-1.3-1.3c-0.3,0-0.6,0-0.9,0.1c-0.3,0.1-0.5,0.2-0.6,0.3l-0.2,0.2
					l-0.5-0.8c0,0,0.1,0,0.1-0.1c0,0,0.1-0.1,0.3-0.2c0.2-0.1,0.3-0.2,0.5-0.2c0.2-0.1,0.4-0.1,0.6-0.2c0.3-0.1,0.5-0.1,0.8-0.1
					c0.8,0,1.4,0.2,1.8,0.6c0.4,0.4,0.6,1,0.6,1.7v2.7c0,0.2,0.1,0.3,0.3,0.3h0.6v0.9h-1.2c-0.5,0-0.8-0.2-0.8-0.7v-0.1l0-0.4h0
					c0,0,0,0.1-0.1,0.1c0,0.1-0.1,0.2-0.2,0.3c-0.1,0.1-0.2,0.3-0.4,0.4c-0.1,0.1-0.3,0.2-0.6,0.3s-0.5,0.1-0.8,0.1
					c-0.6,0-1-0.2-1.4-0.5S132.8,130.9,132.8,130.3z M133.9,130.2c0,0.3,0.1,0.5,0.3,0.7c0.2,0.2,0.5,0.3,0.8,0.3
					c0.5,0,0.9-0.2,1.2-0.6c0.3-0.4,0.5-0.9,0.5-1.4V129h-0.3C134.8,129,133.9,129.4,133.9,130.2z"/>
			</g>
			<g>
				<path fill="#3C71B9" d="M140.5,133.1c0.5,0.3,1.1,0.4,1.7,0.4c0.6,0,1-0.1,1.4-0.4s0.5-0.7,0.5-1.3v-0.5l0-0.4h0
					c-0.4,0.7-1,1-1.8,1c-0.8,0-1.5-0.3-2-0.9s-0.7-1.3-0.7-2.2c0-0.9,0.2-1.6,0.7-2.2c0.5-0.6,1.1-0.8,1.9-0.8
					c0.4,0,0.8,0.1,1.2,0.3c0.4,0.2,0.6,0.4,0.8,0.7h0c0-0.1,0-0.1,0-0.2c0-0.4,0.2-0.6,0.7-0.6h1.3v0.9h-0.7
					c-0.2,0-0.3,0.1-0.3,0.2v4.7c0,0.5-0.1,0.9-0.3,1.3c-0.2,0.4-0.4,0.7-0.7,0.9c-0.3,0.2-0.6,0.4-1,0.5c-0.4,0.1-0.7,0.2-1.1,0.2
					c-0.7,0-1.4-0.2-2.1-0.5L140.5,133.1z M142.5,130.9c0.5,0,0.9-0.2,1.2-0.5c0.3-0.3,0.5-0.9,0.5-1.6c0-1.4-0.6-2-1.7-2
					c-0.5,0-0.9,0.2-1.2,0.5c-0.3,0.4-0.4,0.8-0.4,1.5c0,0.6,0.2,1.2,0.5,1.5C141.5,130.7,142,130.9,142.5,130.9z"/>
			</g>
			<g>
				<path fill="#3C71B9" d="M147,129c0-1,0.3-1.7,0.9-2.3s1.3-0.9,2.2-0.9c0.8,0,1.5,0.3,1.9,0.8c0.5,0.5,0.7,1.2,0.7,2l0,0.4h-4.4
					c0,0.6,0.2,1.2,0.6,1.5c0.4,0.4,0.9,0.5,1.5,0.5c0.3,0,0.6-0.1,0.9-0.2s0.5-0.2,0.7-0.3l0.2-0.2l0.5,0.9
					c-0.1,0.1-0.2,0.1-0.3,0.2c-0.1,0.1-0.4,0.2-0.8,0.4c-0.4,0.2-0.8,0.2-1.3,0.2c-0.9,0-1.7-0.3-2.3-0.9
					C147.3,130.6,147,129.9,147,129z M148.3,128.3h3.2c0-0.5-0.2-0.9-0.4-1.2c-0.3-0.3-0.6-0.4-1-0.4c-0.4,0-0.8,0.1-1.2,0.4
					C148.6,127.4,148.4,127.8,148.3,128.3z"/>
			</g>
		</g>
		<g>
			<g>
				<g>
					<rect x="98" y="72" fill="#3C71B9" width="4" height="14"/>
				</g>
			</g>
			<g>
				<g>
					<g>
						<polygon fill="#3C71B9" points="95.2,84 100.2,92.6 105.2,84 						"/>
					</g>
				</g>
			</g>
		</g>
		<g>
			<g>
				<path fill="#3C71B9" d="M158,104H43c-2.5,0-4.5-2-4.5-4.5s2-4.5,4.5-4.5h115c2.5,0,4.5,2,4.5,4.5S160.5,104,158,104z"/>
			</g>
		</g>
		<g>
			<g>
				<path fill="#3C71B9" d="M158,118H43c-2.5,0-4.5-2-4.5-4.5s2-4.5,4.5-4.5h115c2.5,0,4.5,2,4.5,4.5S160.5,118,158,118z"/>
			</g>
		</g>
		<g>
			<g>
				<rect x="57" y="38" fill="#3C71B9" width="87" height="37"/>
			</g>
		</g>
		<g>
			<g>
				<path fill="#FFFFFF" d="M66.2,60v-0.9h1.1v-6.6h-1.1v-0.9h6.1v2h-1v-1h-2.8v2.7h3v1h-3V59h3v-1h1v2H66.2z"/>
			</g>
			<g>
				<path fill="#FFFFFF" d="M74.2,58.3v-5.8h-1v-0.9h2.2v6.7c0,0.3,0,0.5,0.1,0.6c0.1,0.1,0.3,0.2,0.5,0.2l0.3,0l0,1
					c-0.2,0-0.3,0-0.5,0C74.7,60,74.2,59.4,74.2,58.3z"/>
			</g>
			<g>
				<path fill="#FFFFFF" d="M77.1,57c0-1,0.3-1.7,0.9-2.3c0.6-0.6,1.3-0.9,2.2-0.9c0.8,0,1.5,0.3,1.9,0.8c0.5,0.5,0.7,1.2,0.7,2
					l0,0.4h-4.4c0,0.6,0.2,1.2,0.6,1.5c0.4,0.4,0.9,0.5,1.5,0.5c0.3,0,0.6-0.1,0.9-0.2c0.3-0.1,0.5-0.2,0.7-0.3l0.2-0.2l0.5,0.9
					c-0.1,0.1-0.2,0.1-0.3,0.2s-0.4,0.2-0.8,0.4c-0.4,0.2-0.8,0.2-1.3,0.2c-0.9,0-1.7-0.3-2.3-0.9S77.1,57.9,77.1,57z M78.4,56.3
					h3.2c0-0.5-0.2-0.9-0.4-1.2s-0.6-0.4-1-0.4c-0.4,0-0.8,0.1-1.2,0.4C78.6,55.4,78.4,55.8,78.4,56.3z"/>
			</g>
			<g>
				<path fill="#FFFFFF" d="M83.8,57c0-0.9,0.3-1.7,0.9-2.3c0.6-0.6,1.4-0.9,2.3-0.9c0.2,0,0.5,0,0.8,0.1c0.3,0,0.5,0.1,0.8,0.2
					s0.5,0.2,0.6,0.4c0.2,0.2,0.2,0.4,0.2,0.7v0.7h-1v-0.4c0-0.2-0.1-0.4-0.4-0.5c-0.3-0.1-0.6-0.2-0.9-0.2c-0.6,0-1.1,0.2-1.5,0.6
					C85.2,55.8,85,56.3,85,57c0,0.7,0.2,1.2,0.6,1.6c0.4,0.4,0.9,0.6,1.5,0.6c0.3,0,0.6-0.1,0.9-0.2c0.3-0.1,0.5-0.2,0.6-0.3
					c0.1-0.1,0.2-0.2,0.4-0.3l0.4,0.9c-0.7,0.6-1.5,0.9-2.4,0.9c-0.9,0-1.7-0.3-2.3-0.9C84.1,58.7,83.8,57.9,83.8,57z"/>
			</g>
			<g>
				<path fill="#FFFFFF" d="M91.2,57.8v-3h-1v-0.9h1v-1.7h1.1v1.7h1.5v0.9h-1.5v2.8c0,0.3,0,0.5,0.1,0.7c0.1,0.2,0.2,0.3,0.4,0.4
					c0.1,0.1,0.3,0.1,0.4,0.2c0.1,0,0.3,0,0.4,0l0.3,0v1c-0.1,0-0.3,0-0.4,0c-0.2,0-0.4,0-0.5,0c-0.2,0-0.4-0.1-0.6-0.2
					c-0.2-0.1-0.4-0.2-0.6-0.4c-0.2-0.2-0.3-0.4-0.4-0.7C91.2,58.5,91.2,58.2,91.2,57.8z"/>
			</g>
			<g>
				<path fill="#FFFFFF" d="M94.9,60v-0.9h0.9v-4c0-0.2-0.1-0.3-0.3-0.3h-0.8v-0.9h1.4c0.5,0,0.8,0.2,0.8,0.7V55l0,0.4h0
					c0.1-0.5,0.4-0.8,0.7-1.1c0.3-0.3,0.7-0.4,1.2-0.4l0.3,0V55c-0.1,0-0.2,0-0.3,0c-0.6,0-1.1,0.2-1.4,0.8s-0.5,1.1-0.5,1.7v1.6
					h0.9V60H94.9z"/>
			</g>
			<g>
				<path fill="#FFFFFF" d="M100.7,59.2c-0.6-0.6-1-1.4-1-2.3c0-0.9,0.3-1.7,0.9-2.3c0.6-0.6,1.4-0.9,2.3-0.9s1.7,0.3,2.3,0.9
					c0.6,0.6,0.9,1.4,0.9,2.3c0,0.9-0.3,1.7-1,2.3c-0.6,0.6-1.4,0.9-2.3,0.9S101.3,59.8,100.7,59.2z M100.9,57
					c0,0.6,0.2,1.2,0.6,1.6c0.4,0.4,0.9,0.6,1.5,0.6c0.6,0,1.1-0.2,1.5-0.6s0.6-0.9,0.6-1.6s-0.2-1.1-0.6-1.5s-0.9-0.6-1.5-0.6
					c-0.6,0-1.1,0.2-1.5,0.6C101.1,55.8,100.9,56.3,100.9,57z"/>
			</g>
			<g>
				<path fill="#FFFFFF" d="M107.8,58.3v-5.8h-1v-0.9h2.2v6.7c0,0.3,0,0.5,0.1,0.6c0.1,0.1,0.3,0.2,0.5,0.2l0.3,0l0,1
					c-0.2,0-0.3,0-0.5,0C108.3,60,107.8,59.4,107.8,58.3z"/>
			</g>
			<g>
				<path fill="#FFFFFF" d="M111,61.3c0.2,0.2,0.5,0.3,0.9,0.3c0.5,0,0.9-0.3,1.1-0.8l0.3-0.6l-2.1-5.3h-0.8v-0.9h2.8v0.9h-0.8
					l1.4,3.6l0.1,0.5h0c0-0.2,0.1-0.4,0.1-0.5l1.3-3.6h-0.8v-0.9h2.7v0.9h-0.8L114,61c-0.2,0.5-0.5,0.9-0.9,1.2
					c-0.4,0.3-0.8,0.4-1.3,0.4c-0.2,0-0.5,0-0.7-0.1c-0.2-0.1-0.4-0.1-0.5-0.2l-0.2-0.1L111,61.3z"/>
			</g>
			<g>
				<path fill="#FFFFFF" d="M117.8,58.7V58h1v0.4c0,0.2,0.1,0.4,0.4,0.6c0.3,0.1,0.6,0.2,1,0.2c0.4,0,0.6-0.1,0.9-0.2
					c0.2-0.1,0.3-0.3,0.3-0.6c0-0.3-0.1-0.5-0.3-0.6c-0.2-0.1-0.6-0.3-1-0.5c-0.1,0-0.1,0-0.2-0.1c-0.3-0.1-0.5-0.2-0.7-0.3
					s-0.4-0.2-0.6-0.3c-0.2-0.1-0.4-0.3-0.5-0.5c-0.1-0.2-0.2-0.4-0.2-0.7c0-0.6,0.2-1,0.7-1.3s1-0.4,1.6-0.4c0.5,0,1,0.1,1.4,0.3
					c0.4,0.2,0.7,0.5,0.7,0.9v0.7h-1v-0.4c0-0.2-0.1-0.3-0.3-0.4c-0.2-0.1-0.5-0.2-0.8-0.2c-0.3,0-0.6,0.1-0.8,0.2
					c-0.2,0.1-0.3,0.3-0.3,0.5c0,0.1,0,0.3,0.1,0.4c0.1,0.1,0.2,0.2,0.3,0.3c0.2,0.1,0.3,0.2,0.4,0.2c0.1,0.1,0.3,0.1,0.5,0.2
					c0.3,0.1,0.5,0.2,0.7,0.3s0.4,0.2,0.6,0.3s0.4,0.3,0.5,0.5c0.1,0.2,0.2,0.4,0.2,0.7c0,0.6-0.2,1-0.7,1.3c-0.5,0.3-1,0.5-1.8,0.5
					c-0.6,0-1.2-0.1-1.6-0.4S117.8,59.1,117.8,58.7z"/>
			</g>
			<g>
				<path fill="#FFFFFF" d="M123.5,57c0-1,0.3-1.7,0.9-2.3c0.6-0.6,1.3-0.9,2.2-0.9c0.8,0,1.5,0.3,1.9,0.8c0.5,0.5,0.7,1.2,0.7,2
					l0,0.4h-4.4c0,0.6,0.2,1.2,0.6,1.5c0.4,0.4,0.9,0.5,1.5,0.5c0.3,0,0.6-0.1,0.9-0.2c0.3-0.1,0.5-0.2,0.7-0.3l0.2-0.2l0.5,0.9
					c-0.1,0.1-0.2,0.1-0.3,0.2s-0.4,0.2-0.8,0.4s-0.8,0.2-1.3,0.2c-0.9,0-1.7-0.3-2.3-0.9S123.5,57.9,123.5,57z M124.8,56.3h3.2
					c0-0.5-0.2-0.9-0.4-1.2s-0.6-0.4-1-0.4c-0.4,0-0.8,0.1-1.2,0.4C125.1,55.4,124.9,55.8,124.8,56.3z"/>
			</g>
			<g>
				<path fill="#FFFFFF" d="M130.3,60v-0.9h0.9v-4c0-0.2-0.1-0.3-0.3-0.3h-0.8v-0.9h1.4c0.5,0,0.8,0.2,0.8,0.7V55l0,0.4h0
					c0.1-0.5,0.4-0.8,0.7-1.1c0.3-0.3,0.7-0.4,1.2-0.4l0.3,0V55c-0.1,0-0.2,0-0.3,0c-0.6,0-1.1,0.2-1.4,0.8
					c-0.3,0.5-0.5,1.1-0.5,1.7v1.6h0.9V60H130.3z"/>
			</g>
		</g>
	</g>
</g>
</svg>
