<?xml version="1.0" encoding="utf-8"?>
<!-- Generator: Adobe Illustrator 15.1.0, SVG Export Plug-In . SVG Version: 6.00 Build 0)  -->
<!DOCTYPE svg PUBLIC "-//W3C//DTD SVG 1.1//EN" "http://www.w3.org/Graphics/SVG/1.1/DTD/svg11.dtd">
<svg version="1.1" id="Layer_1" xmlns="http://www.w3.org/2000/svg" xmlns:xlink="http://www.w3.org/1999/xlink" x="0px" y="0px"
	 width="200px" height="141px" viewBox="0 0 200 141" enable-background="new 0 0 200 141" xml:space="preserve">
<g>
	<g>
		<g>
			<g>
				<path fill="#FFFFFF" d="M196,26c2.2,0,4-1.8,4-4V4c0-2.2-1.8-4-4-4H4C1.8,0,0,1.8,0,4v18c0,2.2,1.8,4,4,4H196z"/>
			</g>
		</g>
		<g>
			<g>
				<path fill="#FFFFFF" d="M4,27c-2.2,0-4,1.8-4,4v106c0,2.2,1.8,4,4,4h192c2.2,0,4-1.8,4-4V31c0-2.2-1.8-4-4-4H4z"/>
			</g>
		</g>
	</g>
	<g>
		<g>
			<path fill="#3C71B9" d="M40.6,18.5v-1.1h1.2V9.7h-1.2V8.6h3.9v1.1h-1.2V13h5.1V9.7h-1.2V8.6H51v1.1h-1.2v7.7H51v1.1h-3.9v-1.1
				h1.2v-3.3h-5.1v3.3h1.2v1.1H40.6z"/>
		</g>
		<g>
			<path fill="#3C71B9" d="M52.4,20c0.3,0.2,0.6,0.3,1,0.3c0.6,0,1-0.3,1.3-1l0.3-0.7l-2.5-6.2h-0.9v-1h3.2v1h-0.9l1.6,4.2l0.1,0.6
				h0c0-0.2,0.1-0.4,0.2-0.6l1.6-4.2h-0.9v-1h3.1v1h-0.9L56,19.6c-0.2,0.6-0.6,1-1,1.4c-0.4,0.3-0.9,0.5-1.5,0.5
				c-0.3,0-0.5,0-0.8-0.1c-0.3-0.1-0.4-0.1-0.6-0.2L51.9,21L52.4,20z"/>
		</g>
		<g>
			<path fill="#3C71B9" d="M60.4,15c0-1.1,0.3-2,0.9-2.7c0.6-0.7,1.4-1,2.3-1c0.3,0,0.6,0,0.8,0.1s0.5,0.2,0.6,0.3s0.3,0.2,0.4,0.3
				c0.1,0.1,0.2,0.2,0.2,0.3l0.1,0.1h0c0-0.1,0-0.3,0-0.5V9.7h-1.2v-1h2.5v8.5c0,0.2,0.1,0.3,0.3,0.3h0.7v1h-1.4
				c-0.6,0-0.9-0.3-0.9-0.8v-0.1l0-0.4h0c0,0,0,0.1-0.1,0.2c0,0.1-0.1,0.2-0.2,0.3s-0.3,0.3-0.4,0.4c-0.2,0.1-0.4,0.2-0.7,0.3
				c-0.3,0.1-0.6,0.2-0.9,0.2c-0.9,0-1.7-0.3-2.3-1C60.6,17,60.4,16.1,60.4,15z M61.7,15c0,0.8,0.2,1.4,0.6,1.8
				c0.4,0.5,0.9,0.7,1.4,0.7c0.6,0,1.1-0.2,1.4-0.6c0.4-0.4,0.6-1.1,0.6-1.9c0-0.7-0.2-1.3-0.5-1.8c-0.3-0.5-0.8-0.7-1.5-0.7
				c-0.6,0-1.1,0.2-1.5,0.7C61.9,13.6,61.7,14.2,61.7,15z"/>
		</g>
		<g>
			<path fill="#3C71B9" d="M69.3,18.5v-1h1.1v-4.7c0-0.2-0.1-0.3-0.3-0.3h-0.9v-1h1.6c0.6,0,0.9,0.3,0.9,0.8v0.4l0,0.5h0
				c0.2-0.5,0.5-1,0.8-1.3c0.4-0.3,0.9-0.5,1.4-0.5l0.3,0v1.3c-0.1,0-0.2,0-0.4,0c-0.7,0-1.2,0.3-1.6,0.9c-0.4,0.6-0.6,1.3-0.6,2
				v1.9h1v1H69.3z"/>
		</g>
		<g>
			<path fill="#3C71B9" d="M76.1,17.6C75.4,16.9,75,16,75,14.9c0-1.1,0.4-1.9,1.1-2.6s1.6-1,2.7-1s2,0.3,2.7,1
				c0.7,0.7,1.1,1.6,1.1,2.6c0,1.1-0.4,2-1.1,2.7c-0.7,0.7-1.6,1.1-2.7,1.1S76.8,18.3,76.1,17.6z M76.4,14.9c0,0.7,0.2,1.3,0.7,1.8
				c0.5,0.5,1,0.7,1.7,0.7c0.7,0,1.2-0.2,1.7-0.7c0.5-0.5,0.7-1.1,0.7-1.8c0-0.7-0.2-1.3-0.7-1.8c-0.5-0.5-1.1-0.7-1.7-0.7
				c-0.7,0-1.3,0.2-1.7,0.7C76.6,13.6,76.4,14.2,76.4,14.9z"/>
		</g>
		<g>
			<path fill="#3C71B9" d="M84.9,19.8c0.6,0.3,1.2,0.5,1.9,0.5c0.7,0,1.2-0.2,1.6-0.5c0.4-0.3,0.6-0.8,0.6-1.5v-0.6l0-0.4h0
				c-0.5,0.8-1.2,1.1-2.1,1.1s-1.7-0.3-2.3-1c-0.6-0.7-0.9-1.6-0.9-2.6s0.3-1.9,0.8-2.6c0.6-0.7,1.3-1,2.3-1c0.5,0,1,0.1,1.4,0.3
				c0.4,0.2,0.7,0.5,0.9,0.9h0c0-0.1,0-0.2,0-0.3c0-0.5,0.3-0.7,0.8-0.7h1.5v1h-0.8c-0.2,0-0.3,0.1-0.3,0.3v5.5
				c0,0.6-0.1,1.1-0.3,1.5c-0.2,0.4-0.5,0.8-0.8,1c-0.3,0.2-0.7,0.4-1.1,0.6s-0.8,0.2-1.3,0.2c-0.8,0-1.6-0.2-2.4-0.6L84.9,19.8z
				 M87.2,17.2c0.6,0,1-0.2,1.4-0.6s0.5-1,0.5-1.9c0-1.6-0.7-2.4-2-2.4c-0.6,0-1.1,0.2-1.4,0.6c-0.3,0.4-0.5,1-0.5,1.7
				c0,0.7,0.2,1.3,0.6,1.8C86.1,17,86.6,17.2,87.2,17.2z"/>
		</g>
		<g>
			<path fill="#3C71B9" d="M92.5,15c0-1.1,0.3-2,1-2.7c0.7-0.7,1.5-1,2.5-1c1,0,1.7,0.3,2.3,0.9c0.5,0.6,0.8,1.4,0.8,2.4l0,0.5h-5.2
				c0,0.8,0.3,1.3,0.8,1.8c0.5,0.4,1,0.6,1.7,0.6c0.4,0,0.7-0.1,1.1-0.2c0.4-0.1,0.6-0.3,0.8-0.4l0.3-0.2l0.6,1
				c-0.1,0.1-0.2,0.2-0.3,0.3s-0.5,0.3-0.9,0.4c-0.5,0.2-1,0.3-1.5,0.3c-1.1,0-2-0.4-2.7-1.1C92.9,16.9,92.5,16,92.5,15z M94,14.2
				h3.8c0-0.6-0.2-1.1-0.5-1.4s-0.7-0.5-1.2-0.5c-0.5,0-1,0.2-1.4,0.5S94.1,13.6,94,14.2z"/>
		</g>
		<g>
			<path fill="#3C71B9" d="M100.4,18.5v-1h1.1v-4.7c0-0.2-0.1-0.3-0.3-0.3h-0.9v-1h1.6c0.6,0,0.9,0.3,0.9,0.8v0.4l0,0.4h0
				c0-0.1,0.1-0.3,0.3-0.4s0.3-0.4,0.5-0.6s0.5-0.4,0.8-0.5c0.4-0.1,0.7-0.2,1.2-0.2c0.8,0,1.4,0.2,1.8,0.7c0.4,0.4,0.6,1.1,0.6,2
				v3.5h1.1v1h-2.5v-4.2c0-0.6-0.1-1-0.3-1.3c-0.2-0.3-0.5-0.5-1.1-0.5c-0.7,0-1.3,0.3-1.7,0.8s-0.7,1.2-0.7,1.9v2.2h1.1v1H100.4z"
				/>
		</g>
		<g>
			<path fill="#3C71B9" d="M113.6,18.5v-1.1h1.2V9.7h-1.2V8.6h7.2v2.3h-1.2V9.8h-3.3v3.2h3.5v1.1h-3.5v3.3h3.5v-1.2h1.2v2.3H113.6z"
				/>
		</g>
		<g>
			<path fill="#3C71B9" d="M122.4,18.5v-1h1.1v-4.7c0-0.2-0.1-0.3-0.3-0.3h-0.9v-1h1.6c0.6,0,0.9,0.3,0.9,0.8v0.4l0,0.4h0
				c0-0.1,0.1-0.3,0.3-0.4c0.1-0.2,0.3-0.4,0.5-0.6c0.2-0.2,0.5-0.4,0.8-0.5c0.4-0.1,0.7-0.2,1.2-0.2c0.8,0,1.4,0.2,1.8,0.7
				c0.4,0.4,0.6,1.1,0.6,2v3.5h1.1v1h-2.5v-4.2c0-0.6-0.1-1-0.3-1.3s-0.5-0.5-1.1-0.5c-0.7,0-1.3,0.3-1.7,0.8s-0.7,1.2-0.7,1.9v2.2
				h1.1v1H122.4z"/>
		</g>
		<g>
			<path fill="#3C71B9" d="M131.9,15c0-1.1,0.3-2,1-2.7c0.7-0.7,1.5-1,2.5-1c1,0,1.7,0.3,2.3,0.9c0.5,0.6,0.8,1.4,0.8,2.4l0,0.5
				h-5.2c0,0.8,0.3,1.3,0.8,1.8c0.5,0.4,1,0.6,1.7,0.6c0.4,0,0.7-0.1,1.1-0.2c0.4-0.1,0.6-0.3,0.8-0.4l0.3-0.2l0.6,1
				c-0.1,0.1-0.2,0.2-0.3,0.3s-0.5,0.3-0.9,0.4c-0.5,0.2-1,0.3-1.5,0.3c-1.1,0-2-0.4-2.7-1.1S131.9,16,131.9,15z M133.4,14.2h3.8
				c0-0.6-0.2-1.1-0.5-1.4c-0.3-0.3-0.7-0.5-1.2-0.5c-0.5,0-1,0.2-1.4,0.5S133.5,13.6,133.4,14.2z"/>
		</g>
		<g>
			<path fill="#3C71B9" d="M139.8,18.5v-1h1.1v-4.7c0-0.2-0.1-0.3-0.3-0.3h-0.9v-1h1.6c0.6,0,0.9,0.3,0.9,0.8v0.4l0,0.5h0
				c0.2-0.5,0.4-1,0.8-1.3c0.4-0.3,0.9-0.5,1.4-0.5l0.4,0v1.3c-0.1,0-0.2,0-0.4,0c-0.7,0-1.2,0.3-1.6,0.9c-0.4,0.6-0.6,1.3-0.6,2
				v1.9h1.1v1H139.8z"/>
		</g>
		<g>
			<path fill="#3C71B9" d="M146.7,19.8c0.6,0.3,1.2,0.5,1.9,0.5c0.7,0,1.2-0.2,1.6-0.5c0.4-0.3,0.6-0.8,0.6-1.5v-0.6l0-0.4h0
				c-0.5,0.8-1.2,1.1-2.1,1.1s-1.7-0.3-2.3-1c-0.6-0.7-0.9-1.6-0.9-2.6s0.3-1.9,0.8-2.6c0.6-0.7,1.3-1,2.3-1c0.5,0,1,0.1,1.4,0.3
				c0.4,0.2,0.7,0.5,0.9,0.9h0c0-0.1,0-0.2,0-0.3c0-0.5,0.3-0.7,0.8-0.7h1.5v1h-0.8c-0.2,0-0.3,0.1-0.3,0.3v5.5
				c0,0.6-0.1,1.1-0.3,1.5c-0.2,0.4-0.5,0.8-0.8,1c-0.3,0.2-0.7,0.4-1.1,0.6s-0.8,0.2-1.3,0.2c-0.8,0-1.6-0.2-2.4-0.6L146.7,19.8z
				 M149.1,17.2c0.6,0,1-0.2,1.4-0.6s0.5-1,0.5-1.9c0-1.6-0.7-2.4-2-2.4c-0.6,0-1.1,0.2-1.4,0.6c-0.3,0.4-0.5,1-0.5,1.7
				c0,0.7,0.2,1.3,0.6,1.8C148,17,148.5,17.2,149.1,17.2z"/>
		</g>
		<g>
			<path fill="#3C71B9" d="M154.7,20c0.3,0.2,0.6,0.3,1,0.3c0.6,0,1-0.3,1.3-1l0.3-0.7l-2.5-6.2h-0.9v-1h3.2v1h-0.9l1.6,4.2l0.1,0.6
				h0c0-0.2,0.1-0.4,0.2-0.6l1.6-4.2h-0.9v-1h3.1v1h-0.9l-2.8,7.2c-0.2,0.6-0.6,1-1,1.4c-0.4,0.3-0.9,0.5-1.5,0.5
				c-0.3,0-0.5,0-0.8-0.1s-0.4-0.1-0.6-0.2l-0.2-0.1L154.7,20z"/>
		</g>
	</g>
	<g>
		<g>
			<g>
				<g>
					<path fill="#3C71B9" d="M116.3,132v-0.9h1.1v-6.6h-1.1v-0.9h3.3v0.9h-1.1v2.8h4.4v-2.8h-1.1v-0.9h3.3v0.9h-1.1v6.6h1.1v0.9
						h-3.3v-0.9h1.1v-2.8h-4.4v2.8h1.1v0.9H116.3z"/>
				</g>
				<g>
					<path fill="#3C71B9" d="M127,131.2c-0.6-0.6-1-1.4-1-2.3c0-0.9,0.3-1.7,0.9-2.3c0.6-0.6,1.4-0.9,2.3-0.9s1.7,0.3,2.3,0.9
						c0.6,0.6,0.9,1.4,0.9,2.3c0,0.9-0.3,1.7-1,2.3c-0.6,0.6-1.4,0.9-2.3,0.9S127.7,131.8,127,131.2z M127.3,129
						c0,0.6,0.2,1.2,0.6,1.6c0.4,0.4,0.9,0.6,1.5,0.6c0.6,0,1.1-0.2,1.5-0.6s0.6-0.9,0.6-1.6s-0.2-1.1-0.6-1.5s-0.9-0.6-1.5-0.6
						c-0.6,0-1.1,0.2-1.5,0.6C127.5,127.8,127.3,128.3,127.3,129z"/>
				</g>
				<g>
					<path fill="#3C71B9" d="M134.3,129.8v-3h-1v-0.9h1v-1.7h1.1v1.7h1.5v0.9h-1.5v2.8c0,0.3,0,0.5,0.1,0.7c0.1,0.2,0.2,0.3,0.4,0.4
						s0.3,0.1,0.4,0.2c0.1,0,0.3,0,0.4,0l0.3,0v1c-0.1,0-0.3,0-0.4,0c-0.2,0-0.4,0-0.5,0c-0.2,0-0.4-0.1-0.6-0.2
						c-0.2-0.1-0.4-0.2-0.6-0.4c-0.2-0.2-0.3-0.4-0.4-0.7C134.4,130.5,134.3,130.2,134.3,129.8z"/>
				</g>
				<g>
					<path fill="#3C71B9" d="M140.5,126.8v-0.9h2.7v0.9h-0.8l1,3.5l0.1,0.6h0c0-0.2,0-0.4,0.1-0.6l1.3-4.4h1.1l1.3,4.4l0.1,0.6h0
						c0-0.2,0-0.4,0.1-0.6l1-3.5h-0.8v-0.9h2.7v0.9h-0.8l-1.6,5.2H147l-1.3-4.1l-0.1-0.6h0c0,0.2-0.1,0.4-0.1,0.6l-1.3,4.1h-1.3
						l-1.6-5.2H140.5z"/>
				</g>
				<g>
					<path fill="#3C71B9" d="M151.1,130.3c0-0.3,0.1-0.6,0.2-0.8c0.1-0.2,0.3-0.4,0.5-0.6c0.2-0.1,0.4-0.3,0.7-0.4
						c0.2-0.1,0.5-0.2,0.8-0.2c0.3,0,0.5-0.1,0.7-0.1c0.2,0,0.4,0,0.6,0h0.4V128c0-0.9-0.4-1.3-1.3-1.3c-0.3,0-0.6,0-0.9,0.1
						c-0.3,0.1-0.5,0.2-0.6,0.3l-0.2,0.2l-0.5-0.8c0,0,0.1,0,0.1-0.1c0,0,0.1-0.1,0.3-0.2s0.3-0.2,0.5-0.2c0.2-0.1,0.4-0.1,0.6-0.2
						c0.3-0.1,0.5-0.1,0.8-0.1c0.8,0,1.4,0.2,1.8,0.6s0.6,1,0.6,1.7v2.7c0,0.2,0.1,0.3,0.3,0.3h0.6v0.9h-1.2c-0.5,0-0.8-0.2-0.8-0.7
						v-0.1l0-0.4h0c0,0,0,0.1-0.1,0.1s-0.1,0.2-0.2,0.3c-0.1,0.1-0.2,0.3-0.4,0.4c-0.1,0.1-0.3,0.2-0.6,0.3s-0.5,0.1-0.8,0.1
						c-0.6,0-1-0.2-1.4-0.5C151.3,131.3,151.1,130.9,151.1,130.3z M152.3,130.2c0,0.3,0.1,0.5,0.3,0.7c0.2,0.2,0.5,0.3,0.8,0.3
						c0.5,0,0.9-0.2,1.2-0.6c0.3-0.4,0.5-0.9,0.5-1.4V129h-0.3C153.1,129,152.3,129.4,152.3,130.2z"/>
				</g>
				<g>
					<path fill="#3C71B9" d="M158.5,129.8v-3h-1v-0.9h1v-1.7h1.1v1.7h1.5v0.9h-1.5v2.8c0,0.3,0,0.5,0.1,0.7c0.1,0.2,0.2,0.3,0.4,0.4
						c0.1,0.1,0.3,0.1,0.4,0.2c0.1,0,0.3,0,0.4,0l0.3,0v1c-0.1,0-0.3,0-0.4,0c-0.2,0-0.4,0-0.5,0c-0.2,0-0.4-0.1-0.6-0.2
						c-0.2-0.1-0.4-0.2-0.6-0.4c-0.2-0.2-0.3-0.4-0.4-0.7C158.6,130.5,158.5,130.2,158.5,129.8z"/>
				</g>
				<g>
					<path fill="#3C71B9" d="M162.1,129c0-1,0.3-1.7,0.9-2.3s1.3-0.9,2.2-0.9c0.8,0,1.5,0.3,1.9,0.8c0.5,0.5,0.7,1.2,0.7,2l0,0.4
						h-4.4c0,0.6,0.2,1.2,0.6,1.5c0.4,0.4,0.9,0.5,1.5,0.5c0.3,0,0.6-0.1,0.9-0.2c0.3-0.1,0.5-0.2,0.7-0.3l0.2-0.2l0.5,0.9
						c-0.1,0.1-0.2,0.1-0.3,0.2s-0.4,0.2-0.8,0.4c-0.4,0.2-0.8,0.2-1.3,0.2c-0.9,0-1.7-0.3-2.3-0.9S162.1,129.9,162.1,129z
						 M163.3,128.3h3.2c0-0.5-0.2-0.9-0.4-1.2s-0.6-0.4-1-0.4c-0.4,0-0.8,0.1-1.2,0.4C163.6,127.4,163.4,127.8,163.3,128.3z"/>
				</g>
				<g>
					<path fill="#3C71B9" d="M168.9,132v-0.9h0.9v-4c0-0.2-0.1-0.3-0.3-0.3h-0.8v-0.9h1.4c0.5,0,0.8,0.2,0.8,0.7v0.4l0,0.4h0
						c0.1-0.5,0.4-0.8,0.7-1.1s0.7-0.4,1.2-0.4l0.3,0v1.2c-0.1,0-0.2,0-0.3,0c-0.6,0-1.1,0.2-1.4,0.8s-0.5,1.1-0.5,1.7v1.6h0.9v0.9
						H168.9z"/>
				</g>
			</g>
			<g>
				<g>
					<circle fill="#3C71B9" cx="144.9" cy="78.3" r="38.5"/>
					<path fill="#FFFFFF" d="M144.9,118.8c-22.3,0-40.5-18.2-40.5-40.5s18.2-40.5,40.5-40.5s40.5,18.2,40.5,40.5
						S167.3,118.8,144.9,118.8z M144.9,41.8c-20.1,0-36.5,16.4-36.5,36.5s16.4,36.5,36.5,36.5s36.5-16.4,36.5-36.5
						S165.1,41.8,144.9,41.8z"/>
				</g>
				<g>
					<g>
						<path fill="#FFFFFF" d="M160,56.8c0-3.2-7-5.8-15.3-5.8c-8.2,0-13.7,2.4-15.7,5.7l0,0v45.2l0,0c0,0,0,0.8,0,0.8
							c0,1.4,7.4,2.9,15.7,2.9s15.3-1.6,15.3-3c0,0,0-0.7,0-0.7l0,0V56.7l0,0C160,56.7,160,56.9,160,56.8z"/>
					</g>
					<g>
						<g>
							<path fill="#3C71B9" d="M144.6,78.5c0,6.8-4.3,7.8-4.3,11.9c0,3,2.6,5.4,5.3,5.4c2.7,0,5.6-1.6,5.6-4.9
								C151.3,87.8,150.9,86.6,144.6,78.5z M145.7,93.4c-1.5,0-3-1.4-3-3.1c0-2.3,1.8-2.8,2.9-6.8c2.7,4.1,3.2,5.3,3.2,7.1
								C148.9,92.5,147.3,93.4,145.7,93.4z"/>
						</g>
						<g>
							<path fill="#3C71B9" d="M145.8,88.5c-1,1.7-1.4,2.8-1.4,3.7c0,0.9,0.6,1.4,1.4,1.4c0.8,0,1.6-0.7,1.6-1.6
								C147.3,90.9,146.4,90.6,145.8,88.5z"/>
						</g>
					</g>
					<g>
						<g>
							<circle fill="#3C71B9" cx="145.6" cy="62.1" r="4.8"/>
						</g>
						<g>
							<polyline fill="#FFFFFF" points="144.4,62.2 149.4,59.9 144.9,63.1 							"/>
						</g>
					</g>
				</g>
			</g>
		</g>
		<g>
			<g>
				<g>
					<path fill="#3C71B9" d="M29.7,127.7c0-1.2,0.4-2.3,1.2-3.1c0.8-0.8,1.9-1.2,3.1-1.2c0.3,0,0.6,0,0.9,0.1s0.7,0.1,1,0.3
						c0.4,0.1,0.7,0.3,0.9,0.5c0.2,0.2,0.4,0.5,0.4,0.8v1h-1.1v-0.7c0-0.2-0.1-0.4-0.4-0.6s-0.5-0.3-0.8-0.3
						c-0.3-0.1-0.6-0.1-0.9-0.1c-0.9,0-1.7,0.3-2.3,0.9s-0.9,1.4-0.9,2.3c0,1,0.3,1.8,0.9,2.5s1.4,1,2.3,1c0.3,0,0.5,0,0.8-0.1
						c0.3-0.1,0.6-0.2,0.9-0.3s0.4-0.4,0.4-0.6v-0.7h1.1v1c0,0.3-0.1,0.6-0.3,0.8c-0.2,0.2-0.5,0.4-0.9,0.5
						c-0.4,0.1-0.7,0.2-1.1,0.3c-0.4,0.1-0.7,0.1-1,0.1c-1.3,0-2.3-0.4-3.1-1.3C30.1,130,29.7,129,29.7,127.7z"/>
				</g>
				<g>
					<path fill="#3C71B9" d="M39.5,131.2c-0.6-0.6-1-1.4-1-2.3c0-0.9,0.3-1.7,0.9-2.3c0.6-0.6,1.4-0.9,2.3-0.9s1.7,0.3,2.3,0.9
						c0.6,0.6,0.9,1.4,0.9,2.3c0,0.9-0.3,1.7-1,2.3c-0.6,0.6-1.4,0.9-2.3,0.9S40.1,131.8,39.5,131.2z M39.7,129
						c0,0.6,0.2,1.2,0.6,1.6s0.9,0.6,1.5,0.6c0.6,0,1.1-0.2,1.5-0.6c0.4-0.4,0.6-0.9,0.6-1.6s-0.2-1.1-0.6-1.5
						c-0.4-0.4-0.9-0.6-1.5-0.6c-0.6,0-1.1,0.2-1.5,0.6S39.7,128.3,39.7,129z"/>
				</g>
				<g>
					<path fill="#3C71B9" d="M47,131.2c-0.6-0.6-1-1.4-1-2.3c0-0.9,0.3-1.7,0.9-2.3c0.6-0.6,1.4-0.9,2.3-0.9s1.7,0.3,2.3,0.9
						c0.6,0.6,0.9,1.4,0.9,2.3c0,0.9-0.3,1.7-1,2.3c-0.6,0.6-1.4,0.9-2.3,0.9S47.6,131.8,47,131.2z M47.2,129c0,0.6,0.2,1.2,0.6,1.6
						c0.4,0.4,0.9,0.6,1.5,0.6c0.6,0,1.1-0.2,1.5-0.6s0.6-0.9,0.6-1.6s-0.2-1.1-0.6-1.5s-0.9-0.6-1.5-0.6c-0.6,0-1.1,0.2-1.5,0.6
						C47.4,127.8,47.2,128.3,47.2,129z"/>
				</g>
				<g>
					<path fill="#3C71B9" d="M53.4,132v-0.9h1v-6.7h-1v-0.9h2.2v4.7h0.9l1.2-1.4h-0.8v-0.9h2.8v0.9h-0.8l-1.5,1.8v0c0,0,0,0,0.1,0
						c0,0,0.1,0.1,0.2,0.2s0.1,0.2,0.2,0.3l1,1.8c0.1,0.2,0.3,0.2,0.5,0.2h0.4v0.9h-0.9c-0.3,0-0.5,0-0.6-0.1
						c-0.1-0.1-0.3-0.2-0.4-0.5l-1.2-2.1c-0.1-0.2-0.3-0.2-0.6-0.2h-0.5v2h0.8v0.9H53.4z"/>
				</g>
				<g>
					<path fill="#3C71B9" d="M60.6,132v-0.9h0.9v-4.3h-1v-0.9h2.2v5.2h1v0.9H60.6z M61.6,124.7v-1.2h1.2v1.2H61.6z"/>
				</g>
				<g>
					<path fill="#3C71B9" d="M64.7,132v-0.9h0.9v-4c0-0.2-0.1-0.3-0.3-0.3h-0.7v-0.9H66c0.5,0,0.8,0.2,0.8,0.7v0.3l0,0.3h0
						c0-0.1,0.1-0.2,0.2-0.4c0.1-0.1,0.2-0.3,0.4-0.5c0.2-0.2,0.4-0.3,0.7-0.4c0.3-0.1,0.6-0.2,1-0.2c0.7,0,1.2,0.2,1.5,0.6
						c0.3,0.4,0.5,1,0.5,1.8v3h1v0.9H70v-3.6c0-0.5-0.1-0.9-0.2-1.1c-0.2-0.3-0.5-0.4-0.9-0.4c-0.6,0-1.1,0.2-1.5,0.7
						c-0.4,0.5-0.6,1-0.6,1.6v1.9h1v0.9H64.7z"/>
				</g>
				<g>
					<path fill="#3C71B9" d="M73.8,133.1c0.5,0.3,1.1,0.4,1.7,0.4c0.6,0,1-0.1,1.4-0.4s0.5-0.7,0.5-1.3v-0.5l0-0.4h0
						c-0.4,0.7-1,1-1.8,1s-1.5-0.3-2-0.9c-0.5-0.6-0.7-1.3-0.7-2.2c0-0.9,0.2-1.6,0.7-2.2c0.5-0.6,1.1-0.8,2-0.8
						c0.4,0,0.8,0.1,1.2,0.3c0.4,0.2,0.6,0.4,0.8,0.7h0c0-0.1,0-0.1,0-0.2c0-0.4,0.2-0.6,0.7-0.6h1.3v0.9h-0.7
						c-0.2,0-0.3,0.1-0.3,0.2v4.7c0,0.5-0.1,0.9-0.3,1.3c-0.2,0.4-0.4,0.7-0.7,0.9c-0.3,0.2-0.6,0.4-1,0.5c-0.4,0.1-0.7,0.2-1.1,0.2
						c-0.7,0-1.4-0.2-2.1-0.5L73.8,133.1z M75.8,130.9c0.5,0,0.9-0.2,1.2-0.5c0.3-0.3,0.4-0.9,0.4-1.6c0-1.4-0.6-2-1.7-2
						c-0.5,0-0.9,0.2-1.2,0.5c-0.3,0.4-0.4,0.8-0.4,1.5c0,0.6,0.2,1.2,0.5,1.5C74.9,130.7,75.3,130.9,75.8,130.9z"/>
				</g>
			</g>
			<g>
				<g>
					<circle fill="#3C71B9" cx="54.9" cy="77.5" r="38.5"/>
					<path fill="#FFFFFF" d="M54.9,118c-22.3,0-40.5-18.2-40.5-40.5S32.6,37,54.9,37s40.5,18.2,40.5,40.5S77.3,118,54.9,118z
						 M54.9,41c-20.1,0-36.5,16.4-36.5,36.5S34.8,114,54.9,114s36.5-16.4,36.5-36.5S75.1,41,54.9,41z"/>
				</g>
				<g>
					<g>
						<path fill="#FFFFFF" d="M72,66h-3c0.1,0,0.2-0.3,0.2-0.5c0-0.6-0.4-1.2-1-1.3c0,0-0.4-0.1,0-0.1L42,64c0,0-0.3,0.1-0.3,0.2
							c-0.6,0.2-1,0.6-1,1.2c0,0.3,0.1,0.6,0.2,0.6h-3c-0.8,0-1.4,1.2-1.4,2c0,0.8,0.6,2,1.4,2H41v6.8c0,4.6,4.1,8.2,8.7,8.2h10.4
							c4.6,0,9.8-3.6,9.8-8.2V70h2c0.8,0,1.4-1.2,1.4-2C73.4,67.2,72.8,66,72,66z"/>
					</g>
					<g>
						<path fill="#FFFFFF" d="M60.2,58H57v-1h0.7c0.5,0,0.9-0.5,0.9-1s-0.4-1-0.9-1h-1H55h-1c-0.5,0-0.9,0.5-0.9,1s0.4,1,0.9,1h1v1
							h-5.3c-3.4,0-6.3,1-7.6,4h25.6C66.4,59,63.5,58,60.2,58z"/>
					</g>
				</g>
				<g>
					<g>
						<g>
							<path fill="#FFFFFF" d="M44.6,89.4c0,5.5-3.5,6.4-3.5,9.7c0,2.4,2.1,4.4,4.3,4.4c2.2,0,4.6-1.3,4.6-4
								C50,96.9,49.7,95.9,44.6,89.4z M45.5,101.5c-1.2,0-2.4-1.1-2.4-2.5c0-1.9,1.4-2.3,2.4-5.5c2.2,3.3,2.6,4.3,2.6,5.8
								C48.1,100.7,46.7,101.5,45.5,101.5z"/>
						</g>
						<g>
							<path fill="#FFFFFF" d="M45.5,97.5c-0.8,1.4-1.2,2.3-1.2,3c0,0.8,0.5,1.1,1.2,1.1c0.7,0,1.3-0.6,1.3-1.3
								C46.8,99.4,46,99.2,45.5,97.5z"/>
						</g>
					</g>
					<g>
						<g>
							<path fill="#FFFFFF" d="M52.9,89.4c0,5.5-3.5,6.4-3.5,9.7c0,2.4,2.1,4.4,4.3,4.4c2.2,0,4.6-1.3,4.6-4
								C58.3,96.9,58,95.9,52.9,89.4z M53.8,101.5c-1.2,0-2.4-1.1-2.4-2.5c0-1.9,1.4-2.3,2.4-5.5c2.2,3.3,2.6,4.3,2.6,5.8
								C56.4,100.7,55,101.5,53.8,101.5z"/>
						</g>
						<g>
							<path fill="#FFFFFF" d="M53.9,97.5c-0.8,1.4-1.2,2.3-1.2,3c0,0.8,0.5,1.1,1.2,1.1c0.7,0,1.3-0.6,1.3-1.3
								C55.1,99.4,54.4,99.2,53.9,97.5z"/>
						</g>
					</g>
					<g>
						<g>
							<path fill="#FFFFFF" d="M61.3,89.4c0,5.5-3.5,6.4-3.5,9.7c0,2.4,2.1,4.4,4.3,4.4s4.6-1.3,4.6-4
								C66.7,96.9,66.4,95.9,61.3,89.4z M62.1,101.5c-1.2,0-2.4-1.1-2.4-2.5c0-1.9,1.4-2.3,2.4-5.5c2.2,3.3,2.6,4.3,2.6,5.8
								C64.7,100.7,63.4,101.5,62.1,101.5z"/>
						</g>
						<g>
							<path fill="#FFFFFF" d="M62.2,97.5c-0.8,1.4-1.2,2.3-1.2,3c0,0.8,0.5,1.1,1.2,1.1s1.3-0.6,1.3-1.3
								C63.4,99.4,62.7,99.2,62.2,97.5z"/>
						</g>
					</g>
				</g>
			</g>
		</g>
	</g>
</g>
</svg>
